<?xml version="1.0" encoding="UTF-8"?>
<svg id="Layer_1" data-name="Layer 1" xmlns="http://www.w3.org/2000/svg" xmlns:xlink="http://www.w3.org/1999/xlink" viewBox="0 0 1114.58 987.74">
  <defs>
    <style>
      .cls-1 {
        fill: #ffb6b6;
      }

      .cls-2 {
        fill: url(#linear-gradient-2);
      }

      .cls-3 {
        fill: #2f2e41;
      }

      .cls-4, .cls-5 {
        fill: #fff;
      }

      .cls-6 {
        fill: #e9abff;
      }

      .cls-7, .cls-5, .cls-8, .cls-9 {
        isolation: isolate;
      }

      .cls-7, .cls-5, .cls-10, .cls-9 {
        opacity: .1;
      }

      .cls-7, .cls-11 {
        fill: #1e40af;
      }

      .cls-12 {
        fill: #3f3d56;
      }

      .cls-13 {
        fill: #c997db;
      }

      .cls-14 {
        fill: #9d9cb5;
      }

      .cls-15 {
        fill: none;
        stroke: #535461;
        stroke-miterlimit: 10;
        stroke-width: 2px;
      }

      .cls-16 {
        fill: #be8b87;
      }

      .cls-17 {
        fill: #512e4e;
      }

      .cls-18 {
        fill: #535461;
      }

      .cls-19 {
        fill: #efc8c4;
      }

      .cls-20 {
        fill: #e6e6e6;
      }

      .cls-21 {
        fill: #ffb0b1;
      }

      .cls-8 {
        opacity: .03;
      }

      .cls-22 {
        fill: #c7daf5;
      }

      .cls-23 {
        fill: #ffb8b8;
      }

      .cls-24 {
        fill: #ccc;
      }

      .cls-25 {
        fill: #1d2366;
      }

      .cls-26 {
        fill: #727a9c;
      }

      .cls-27 {
        fill: url(#linear-gradient);
      }

      .cls-28 {
        fill: #dce7ff;
      }

      .cls-29 {
        fill: #591d4b;
      }

      .cls-30 {
        fill: #cf6f80;
      }
    </style>
    <linearGradient id="linear-gradient" x1="413.13" y1="44.89" x2="413.13" y2="659.2" gradientTransform="translate(-47.24 918.36) scale(1 -1)" gradientUnits="userSpaceOnUse">
      <stop offset="0" stop-color="gray" stop-opacity=".25"/>
      <stop offset=".54" stop-color="gray" stop-opacity=".12"/>
      <stop offset="1" stop-color="gray" stop-opacity=".1"/>
    </linearGradient>
    <linearGradient id="linear-gradient-2" x1="950.25" y1="52.64" x2="950.25" y2="613.74" xlink:href="#linear-gradient"/>
  </defs>
  <ellipse class="cls-7" cx="376.93" cy="858.27" rx="97.44" ry="15.65"/>
  <ellipse class="cls-7" cx="906.6" cy="858.71" rx="121.59" ry="15.65"/>
  <path class="cls-7" d="m23.39,437.53h101.49v138.1H30.82c-.25,1.42-.49,2.85-.75,4.27h94.81v111.38c-.17-.05-.32-.11-.48-.17-2.68-1.06-5.34-2.18-8-3.37l-1.7-.77c-2.67-1.26-5.33-2.59-8-3.99-.93-.49-1.86-1-2.78-1.52-14.8-8.28-28.25-18.77-39.88-31.11-.34-.33-.66-.68-1-1-1.62-1.76-3.21-3.53-4.75-5.35l-1.7-2c-1.82-2.23-3.58-4.51-5.29-6.83-.25-.34-.49-.68-.75-1-6.95-9.63-12.73-20.05-17.2-31.05-.14-.33-.26-.69-.39-1-1.37-3.53-2.59-7.09-3.65-10.68-.46-1.51-.9-3-1.28-4.56-.14-.46-.26-.91-.37-1.36-5.68-22.13-6.35-45.13-6.35-67.96v-7.99c0-9.23.11-18.53.27-27.81,0-2.41.1-4.8.15-7.22.14-6.13.34-12.26.6-18.39.06-1.71.14-3.4.23-5.1,0-.98.05-1.96.15-2.94.24-3.55.44-7.08.68-10.59Z"/>
  <path class="cls-7" d="m124.88,283.77h-55.67c9.05-14.14,18.94-27.73,29.61-40.69,8.27-10.14,17-20.03,26.06-29.55v70.25Z"/>
  <path class="cls-7" d="m124.88,288.04v145.22H23.71c0-.42.07-.85.1-1.27.09-1.15.18-2.3.28-3.43.11-1.34.23-2.69.36-3.99s.27-2.91.42-4.35.29-2.92.46-4.36.32-2.9.5-4.33.34-2.9.53-4.33c.15-1.2.31-2.39.47-3.58.23-1.69.47-3.38.73-5.06,0-.25.07-.51.11-.75,1.83-12.28,4.31-24.45,7.45-36.46,3.28-12.6,7.48-24.95,12.55-36.94,5.39-12.55,11.7-24.68,18.88-36.3l58.33-.05Z"/>
  <path class="cls-7" d="m149.11,437.52v138.11h216.77v-138.11h-216.77Zm0,142.38v118.61c1.24.26,2.47.51,3.69.72,1.66.32,3.31.61,5,.86.32.05.65.1,1,.13.66.11,1.34.2,2,.29,1.67.23,3.33.42,5,.57.79.08,1.59.15,2.39.21l1.93.15h0c1.05.08,2.09.14,3.12.17.64,0,1.28.06,1.94.08h7.13c.86,0,1.72,0,2.57-.08h.06c.59,0,1.19,0,1.79-.08.17,0,.33,0,.5,0,.5,0,1,0,1.48-.07h.35l3.35-.26c1.1-.1,2.21-.23,3.33-.35l2.28-.27c9.28-1.3,18.45-3.25,27.45-5.83,20.22-5.63,40-13.51,60.21-19.28,26.13-7.44,55-11.09,80.25-2v-93.57h-216.82Zm216.77-296.14V99.9c-23.73-.26-47.4,2.51-70.43,8.25-54.89,13.77-104.14,43.63-146.34,81.77v93.85h10.88v4.26h-10.88v145.24h216.77v-145.23h-161.22v-4.26h161.22Zm278.43-62.11c-13.58-.48-27.08-4.77-39.29-11.4-23.35-12.68-42-32.26-62.84-48.78-43.3-34.41-97-55.18-152.09-60.33v182.62h309.45l.77-.81-56-61.3Zm28.19-4.99l29.89,32.75v-41.33c-10.01,1.24-18.78,4.18-29.85,8.55l-.04.04Zm29.89,511.29v-148.06h-63.69c-.17-.63-.34-1.27-.54-1.91.19.64.35,1.28.53,1.91h-248.56v107.07c2.36,1.75,4.69,3.58,7,5.45h0c2.49,2,4.95,4.1,7.42,6.17l2.49,2.06c1.19,1,2.39,2,3.6,2.94,2.4,1.94,4.82,3.86,7.27,5.75,1.21,1,2.45,1.9,3.68,2.84,19.53,14.91,40.13,28.36,61.63,40.24,4.82,2.66,9.68,5.26,14.59,7.8,3.27,1.67,6.56,3.32,9.86,4.93,4.96,2.42,9.96,4.75,15,6.99h0c46.47,20.82,95.6,35.11,146,42.46,11.19,1.65,22.43,2.95,33.71,3.89v-90.54h1-.99Zm-312.26-439.92v145.23h312.3v-145.23h-312.3Zm0,149.5v138.11h312.3v-138.11h-312.3Zm336.54-229.62v46.1l38.15-41.79c-12.64-2.04-25.36-3.49-38.15-4.36v.05Zm0,229.67v138.06h303.75v-138.11l-303.75.05Zm302.64,301.35l1.07-159.02h-303.71v240.18c19.57.82,39.16.59,58.7-.7h.34c9.33-.59,18.62-1.44,27.87-2.56h.21c49.33-5.73,97.57-18.58,143.2-38.15m132-318.41c-1.14-2.69-2.33-5.35-3.54-7.99-2.26-4.99-4.65-9.84-7.11-14.7h-23.7v138.05h59.92c-.03-39.1-9.94-79.03-25.54-115.42l-.03.05Zm-34.35,119.68v136.78c16.88-16.15,31.14-34.63,41.41-55.76,12.35-25.44,18-52.98,18.46-81.04l-59.87.02Zm0-182.62v35.94h21.48c-6.5-12.37-13.66-24.39-21.45-35.99l-.03.05Zm-206-162.33c-1.58-.6-3.16-1.21-4.75-1.8-16.77-6.18-33.91-11.32-51.31-15.39l-58.38,63.97h0l-1.12,1.19.75.82h207.78c-28.94-19.89-60.14-36.28-92.94-48.83l-.03.05Zm99.06,53.08h-216.77l-4.26,3.89v141.29h303.79v-68.44c-24.1-29.1-51.91-54.91-82.73-76.79l-.03.05Z"/>
  <path class="cls-7" d="m124.88,361.29v71.97H23.71c0-.42.07-.85.1-1.27.09-1.15.18-2.3.28-3.43.11-1.34.23-2.69.36-3.99s.27-2.91.42-4.35.29-2.92.46-4.36.32-2.9.5-4.33.34-2.9.53-4.33c.15-1.2.31-2.39.47-3.58.23-1.69.47-3.38.73-5.06,0-.25.07-.51.11-.75,1.83-12.28,4.31-24.45,7.45-36.46l89.76-.04Z"/>
  <path class="cls-7" d="m23.39,437.53h101.49v138.1H30.82c-.25,1.42-.49,2.85-.75,4.27h94.81v111.38c-.17-.05-.32-.11-.48-.17-2.68-1.06-5.34-2.18-8-3.37l-1.7-.77c-2.67-1.26-5.33-2.59-8-3.99-.93-.49-1.86-1-2.78-1.52-14.8-8.28-28.25-18.77-39.88-31.11-.34-.33-.66-.68-1-1-1.62-1.76-3.21-3.53-4.75-5.35l-1.7-2c-1.82-2.23-3.58-4.51-5.29-6.83-.25-.34-.49-.68-.75-1-6.95-9.63-12.73-20.05-17.2-31.05-.14-.33-.26-.69-.39-1-1.37-3.53-2.59-7.09-3.65-10.68-.46-1.51-.9-3-1.28-4.56-.14-.46-.26-.91-.37-1.36-5.68-22.13-6.35-45.13-6.35-67.96v-7.99c0-9.23.11-18.53.27-27.81,0-2.41.1-4.8.15-7.22.14-6.13.34-12.26.6-18.39.06-1.71.14-3.4.23-5.1,0-.98.05-1.96.15-2.94.24-3.55.44-7.08.68-10.59Z"/>
  <polygon class="cls-7" points="225.42 308.82 225.42 433.26 149.11 433.26 149.11 308.82 159.99 308.82 159.99 266.69 204.65 266.69 204.65 308.82 225.42 308.82"/>
  <rect class="cls-7" x="149.12" y="437.52" width="76.3" height="138.1"/>
  <path class="cls-7" d="m149.11,579.91h76.31v114.81c-9,2.58-18.17,4.53-27.45,5.82l-2.28.28c-1.12.13-2.23.24-3.33.35s-2.24.19-3.35.26h-.35c-.48,0-1,.06-1.47.07h-.51c-.6,0-1.2.06-1.8.08h0c-.85.05-1.7.06-2.57.07h-7.08l-1.93-.07c-1,0-2.08-.11-3.12-.18h0l-1.92-.14-2.39-.22c-1.68-.15-3.35-.34-5-.57l-2-.28-1-.14c-1.67-.26-3.32-.54-5-.86-1.23-.21-2.45-.47-3.69-.72l-.07-118.57Z"/>
  <rect class="cls-7" x="639.51" y="294.13" width="62.92" height="139.12"/>
  <polygon class="cls-7" points="702.44 437.52 702.44 575.64 390.13 575.64 390.13 516.07 556.48 516.07 556.48 551.21 639.51 551.21 639.51 437.52 702.44 437.52"/>
  <path class="cls-7" d="m703.43,727.99h-1v90.6c-11.27-.95-22.5-2.25-33.7-3.88-50.42-7.37-99.58-21.69-146.06-42.55-13.42-6.03-26.57-12.61-39.44-19.75-21.5-11.89-42.11-25.34-61.64-40.24-4.91-3.75-9.75-7.59-14.53-11.52-3.31-2.73-6.6-5.52-9.93-8.24-2.31-1.87-4.64-3.7-7-5.46v-107.03h248.55c-.17-.64-.34-1.28-.52-1.91.19.63.37,1.27.54,1.91h63.73v148.02c.34,0,.67.04,1,.06Z"/>
  <path class="cls-7" d="m866.53,283.77h-41v-12.72h18.38v-37.89c1.59.58,3.18,1.17,4.76,1.79v36.1h17.86v12.72Z"/>
  <path class="cls-7" d="m965.31,433.26h-201.28l.07.05-.09-.05h-37.34v-139.12h10.58v102.83h48.35v-60.9h39.94v-48.03h41v48.07h39.94v60.9h58.83v36.25Z"/>
  <path class="cls-7" d="m726.67,437.52v138.11h238.64v-138.11h-238.64Zm303.42,300.69l.33-109.32h-65.11v-48.92h-238.64v240.11c19.57.82,39.16.59,58.7-.7h.34c9.33-.59,18.62-1.44,27.87-2.56h.21c49.33-5.73,97.57-18.58,143.2-38.15"/>
  <path class="cls-7" d="m1058.88,579.91h55.67c-.49,28.04-6.13,55.59-18.47,81.03-10.27,21.14-24.54,39.62-41.4,55.76v-87.86h4.2v-48.93Z"/>
  <path class="cls-7" d="m1114.58,575.64h-55.7v-115.42h30.14c15.6,36.39,25.51,76.33,25.56,115.42Z"/>
  <rect class="cls-7" x="668.73" y="332.81" width="33.71" height="43.62"/>
  <rect class="cls-7" x="668.73" y="423.22" width="33.71" height="10.04"/>
  <rect class="cls-7" x="668.73" y="437.52" width="33.71" height="29.3"/>
  <rect class="cls-7" x="668.73" y="513.63" width="33.71" height="43.62"/>
  <rect class="cls-7" x="668.73" y="604.04" width="33.71" height="43.62"/>
  <path class="cls-7" d="m702.43,727.93c.34,0,.67,0,1,.06h-1v10.13h-33.7v-43.67h33.7v33.48Z"/>
  <path class="cls-7" d="m702.43,784.85v33.69c-11.27-.95-22.5-2.25-33.7-3.88v-29.81h33.7Z"/>
  <rect class="cls-7" x="390.13" y="572.43" width="144.47" height="3.2"/>
  <rect class="cls-7" x="390.13" y="579.9" width="144.47" height="12.28"/>
  <rect class="cls-7" x="390.13" y="632.43" width="144.47" height="19.75"/>
  <path class="cls-7" d="m534.59,692.44v19.75h-113c-4.91-3.74-9.75-7.58-14.54-11.52-3.31-2.73-6.59-5.52-9.93-8.23h137.47Z"/>
  <path class="cls-7" d="m534.59,752.43v19.73h-11.93c-13.41-6.04-26.55-12.62-39.43-19.76l51.36.03Z"/>
  <rect class="cls-7" x="785.38" y="450.91" width="28.44" height="28.39"/>
  <rect class="cls-7" x="169.6" y="318.62" width="28.44" height="28.39"/>
  <rect class="cls-7" x="169.6" y="384.57" width="28.44" height="28.39"/>
  <rect class="cls-7" x="169.6" y="450.52" width="28.44" height="28.39"/>
  <rect class="cls-7" x="169.6" y="516.46" width="28.44" height="28.39"/>
  <rect class="cls-7" x="169.6" y="582.42" width="28.44" height="28.39"/>
  <rect class="cls-7" x="169.6" y="648.37" width="28.44" height="28.39"/>
  <rect class="cls-7" x="893.95" y="450.91" width="28.44" height="28.39"/>
  <rect class="cls-7" x="785.38" y="520.95" width="28.44" height="28.39"/>
  <rect class="cls-7" x="893.95" y="520.95" width="28.44" height="28.39"/>
  <rect class="cls-7" x="785.38" y="590.97" width="28.44" height="28.39"/>
  <rect class="cls-7" x="893.95" y="590.97" width="28.44" height="28.39"/>
  <rect class="cls-7" x="785.38" y="661.01" width="28.44" height="28.39"/>
  <rect class="cls-7" x="893.95" y="661.01" width="28.44" height="28.39"/>
  <rect class="cls-7" x="785.38" y="731.04" width="28.44" height="28.39"/>
  <rect class="cls-7" x="893.95" y="731.04" width="28.44" height="28.39"/>
  <polygon class="cls-7" points="785.38 819.38 785.38 801.07 813.81 801.07 813.81 816.77 785.38 819.38"/>
  <path class="cls-7" d="m27.55,397.77v16.24h97.33v-16.24H27.55Zm9.7,15.23h-7.94v-14.23h8l-.06,14.23Zm9.69,0h-8v-14.23h8v14.23Zm9.67,0h-8v-14.23h8v14.23Zm9.69,0h-7.99v-14.23h8v14.23Zm9.67,0h-8v-14.23h8v14.23Zm9.69,0h-8v-14.23h8v14.23Zm9.69,0h-8v-14.23h8v14.23Zm9.68,0h-8v-14.23h8v14.23Zm9.68,0h-8v-14.23h8v14.23Zm9.68,0h-8v-14.23h8v14.23Z"/>
  <path class="cls-7" d="m27.55,445.03v16.24h97.33v-16.24H27.55Zm9.7,15.22h-7.94v-14.19h8l-.06,14.19Zm9.69,0h-8v-14.19h8v14.19Zm9.67,0h-8v-14.19h8v14.19Zm9.69,0h-7.99v-14.19h8v14.19Zm9.67,0h-8v-14.19h8v14.19Zm9.69,0h-8v-14.19h8v14.19Zm9.69,0h-8v-14.19h8v14.19Zm9.68,0h-8v-14.19h8v14.19Zm9.68,0h-8v-14.19h8v14.19Zm9.68,0h-8v-14.19h8v14.19Z"/>
  <path class="cls-7" d="m27.55,492.31v16.27h97.33v-16.27H27.55Zm9.7,15.22h-7.94v-14.2h8l-.06,14.2Zm9.69,0h-8v-14.2h8v14.2Zm9.67,0h-8v-14.2h8v14.2Zm9.69,0h-7.99v-14.2h8v14.2Zm9.67,0h-8v-14.2h8v14.2Zm9.69,0h-8v-14.2h8v14.2Zm9.69,0h-8v-14.2h8v14.2Zm9.68,0h-8v-14.2h8v14.2Zm9.68,0h-8v-14.2h8v14.2Zm9.68,0h-8v-14.2h8v14.2Z"/>
  <path class="cls-7" d="m27.55,539.6v16.22h97.33v-16.22H27.55Zm9.7,15.22h-7.94v-14.21h8l-.06,14.21Zm9.69,0h-8v-14.21h8v14.21Zm9.67,0h-8v-14.21h8v14.21Zm9.69,0h-7.99v-14.21h8v14.21Zm9.67,0h-8v-14.21h8v14.21Zm9.69,0h-8v-14.21h8v14.21Zm9.69,0h-8v-14.21h8v14.21Zm9.68,0h-8v-14.21h8v14.21Zm9.68,0h-8v-14.21h8v14.21Zm9.68,0h-8v-14.21h8v14.21Z"/>
  <path class="cls-7" d="m27.97,586.87c.39,1.53.83,3.05,1.29,4.56v-3.54h8v14.2h-4.28c.13.33.26.69.39,1h91.51v-16.21H27.97Zm19,15.22h-8v-14.2h8v14.2Zm9.67,0h-8v-14.2h8v14.2Zm9.69,0h-8.02v-14.2h8l.02,14.2Zm9.68,0h-8v-14.2h8v14.2Zm9.69,0h-8v-14.2h8v14.2Zm9.69,0h-8v-14.2h8v14.2Zm9.68,0h-8v-14.2h8v14.2Zm9.68,0h-8v-14.2h8v14.2Zm9.68,0h-8v-14.2h8v14.2Z"/>
  <path class="cls-7" d="m50.57,634.15c.25.32.49.68.75,1h5.29v6.82c.57.68,1.13,1.36,1.71,2v-8.86h8v14.25h-3.24c.32.33.63.68,1,1h60.83v-16.2H50.57Zm25.41,15.21h-8v-14.19h8v14.19Zm9.69,0h-8v-14.19h8v14.19Zm9.69,0h-8v-14.19h8v14.19Zm9.68,0h-8v-14.19h8v14.19Zm9.68,0h-8v-14.19h8v14.19Zm9.68,0h-8v-14.19h8v14.19Z"/>
  <path class="cls-7" d="m103.96,681.42c.91.52,1.84,1,2.78,1.52v-.5h8v4.49l1.7.79v-5.28h8v8.64c.15.08.31.14.48.18v-9.83h-20.96Z"/>
  <path class="cls-7" d="m764.03,433.26h.06-.06Zm-61.6,294.66h1-1Zm-64.27-149.92c.19.64.35,1.28.53,1.91h0c-.16-.63-.33-1.27-.53-1.91Zm125.87-144.76h.06-.06ZM160.03,283.74v4.26h44.67v-4.26h-44.67Zm542.4,444.18h1-1Zm-64.27-149.92c.19.64.35,1.28.53,1.91h0c-.16-.63-.33-1.27-.53-1.91Zm125.87-144.76h.06-.06Zm-61.6,294.66h1-1Zm-64.27-149.89c.19.64.35,1.28.53,1.91h0c-.16-.63-.33-1.27-.53-1.91Z"/>
  <path class="cls-27" d="m471.15,478.94s-3.94-.55-3.94-6.28-2.82-16.43-2.82-16.43h0s-2.44-18.64-5.81-21.59-7.7-20.31-7.7-20.31c0,0-.74-9.41-2.25-11.44s-3.55-6.99-6.56-14.07-15.56-11.98-15.56-11.98c0,0-22.69-13.14-29.12-17.42h0c-.58-.35-1.13-.76-1.63-1.23-1.12-1.47-6-1.5-6-1.5-.51-3.21-1-6.91-1.16-10.25,0-.36,0-.72-.05-1.08,7.17-4.23,12.57-10.9,15.21-18.79.12-.38.22-.78.33-1.16.87-.29,1.58-.92,1.95-1.76.58-1.29.59-2.8,1.31-3.99.84-1.42,2.44-2.18,3.7-3.24,3.18-2.7,4-7.24,3.85-11.37-.1-3.34-.64-6.72-.43-10.04l.06-.84c.06-.5.13-1,.22-1.48.49-2.48,1.56-4.81,2.16-7.27s.66-5.22-.74-7.34c-2.05-3.1-6.32-3.72-10.07-4.04-4.25-.36-8.05.11-10.77-3.41-1.27-1.84-2.71-3.57-4.28-5.16-.56-.52-6-3.83-6-4.05-5.31-2.46-11.33-2.92-16.95-1.3-2.82.82-5.48,2.16-8.34,2.83-6.17,1.46-13.27-.12-18.51,3.4-2.92,2-4.67,5.17-6.31,8.27-1.33,2.55-2.69,5.1-4.06,7.64-2.21,4.18-4.46,8.44-5.39,13.07-.2,1.01-.32,2.03-.36,3.05h0v1.63c0,.35,0,.69.06,1s.05.41.08.62.08.68.14,1,.18.88.3,1.32c.05.19.12.37.18.55.1.34.22.67.35,1,.07.17.14.35.22.52.15.35.33.69.51,1,.08.14.14.27.22.4.28.46.59.91.92,1.34,2.14,2.67,5.29,4.36,7.62,6.86v1.12c.25,11.3,6.08,21.75,15.58,27.9,0,.38.05.77.07,1.15.2,2.96.16,5.94-.11,8.9-.82-.97-2.05-1.51-3.32-1.48-.43-.02-.86.02-1.28.11l-.09-.07h0v.09c-2.2.54-4.91,2.83-7.5,9.32,0,0-7.88,8.87-13.88,8.5s-21.19,9.22-21.19,9.22c0,0-14.82,9.6-18,19.39-1.78,5.55-3.91,10.98-6.38,16.25l-18.32,37.69h0l-3.38,29.9s1.87,13.3,1.5,15.32,7.69,20.31,7.69,20.31c0,0,26.63,46.71,37.51,49.11l.78-.55c.47.24.96.43,1.47.55l2.24-1.58c.13,1.76.08,3.53-.17,5.27-1.5,4.61.56,34.71,3.18,40.61s1.69,83.26,1.69,83.26l-.37,6.83s0,.22.09.6l-.09,1.62.27.14c.28,2.17.19,4.36-.27,6.5-.94,3-1.32,11.46-1.32,11.46,0,0-7.49,47.8-3.94,57.41,3.55,9.6,6.57,20.13,6.57,20.13,0,0,3.75,11.98.18,14.03s-13.72,5.48-11.63,10.47c1.9,4.61,9.11,16.97,10.18,18.78l-.09.95-1.47,15.9c.24,2.1.81,4.15,1.69,6.07,1.61,3.46,4.74,7.06,10.69,6.67,1-.07,2.16-.19,3.28-.34,10.89-1.46,24.3-6.31,24.3-6.31-.7-.44-1.33-.97-1.9-1.57h0c-1.08-1.05-1.69-2.49-1.67-3.99.16-2.9-5.27-16.69-6.62-20.09-.21-.49-.32-.77-.32-.77,0,0,12.38-12.92,10.32-24.37,0,0-13.7-7.99-9.19-12.37s12.57-16.97,12.57-16.97c0,0,.37-47.07,0-54.1-.39-4.88-.15-9.79.69-14.61.15-.73.33-1.44.52-2.14,6.24.93,12.53,1.41,18.84,1.43,2.3,0,4.64,0,7-.14,0,.67.03,1.38.09,2.16.52,11.66,1.49,32.11,2.28,39.71,1.12,10.89,7.31,40.24,7.31,40.24,0,0-11.81,7.57,2.06,26.22,0,0,0,6.76-.92,7.74h0c-.98,3.2-1.77,6.45-2.37,9.74-.58,3.51-.82,7.07.12,8.92,2.25,4.41,15.75,4.05,15.75,4.05h0l.33-.06c5.15-.53,10.29,1.02,14.29,4.3,5.13,4.11,24.6,2.31,35.14,1,4.13-.52,6.89-1,6.89-1,.13-.47.18-.95.14-1.44h0c-.11-2.59-2.14-8.26-15.9-13.32,0,0-12.94-8.69-12.76-16.25h-1.77c1.09-.06,1.79,0,1.79,0,0,0-5.07-18.47-3-19.97s-4.13-21.96-4.13-21.96c0,0-3.55-34.34-3.74-36.75,0-2.06.32-4.12.93-6.09l-.93-18.83s-.18-6.26,0-8.3c-.03-1.77-.17-3.53-.43-5.28-.09-.7-.18-1.43-.28-2.15,4.85-1.23,8-2.37,8-2.37l-.56-65.54c4.12-7.99,4.88-25.51,4.86-37.94,0-7.99-.36-13.9-.36-13.9l5.63-9.17s1.3-10.98-.76-13.39c-.91-1.09-.5-2.22.25-3.14.39-.31.8-.59,1.23-.84,0,0-.06-.09-.13-.22.39-.33.81-.62,1.25-.89,0,0-2-3.09-.21-4.4,1.68,1.14,3.18,2,4.32,2.7-.08.73-.16,1.15-.16,1.15l.48-1c1.1.62,1.77,1,1.77,1,0,0,8.82-17.54,8.63-20.13s6-13.48,6-13.48c0,0,.75-5.72,4.13-8.12s2.62-19.76,2.62-19.76c0,0,.94-9.05,3.19-12.74s-2.05-8.68-2.05-8.68Zm-168.76-7.7l.17,4.18c-1-1.61-1.72-2.77-1.72-2.77l1.55-1.42Z"/>
  <path class="cls-4" d="m449.11,554.25l-2.16,9.18s-17.3-8.82-20.42-20.02c-3.12-11.2,5.22-15.45,5.22-15.45l16.12,6.82,1.24,19.47Z"/>
  <path class="cls-9" d="m449.11,554.25l-2.16,9.18s-17.3-8.82-20.42-20.02c-3.12-11.2,5.22-15.45,5.22-15.45l16.12,6.82,1.24,19.47Z"/>
  <path class="cls-4" d="m352.02,859.84s-16,5.88-27,6.62c-5.84.39-8.91-3.19-10.49-6.64-.86-1.92-1.42-3.96-1.65-6.05l1.43-15.85.76-8.44,23.37-6.07,3.31,10.12.31.77c1.33,3.38,6.66,17.13,6.5,20-.01,1.48.58,2.91,1.64,3.95.54.61,1.15,1.14,1.82,1.59Z"/>
  <path class="cls-4" d="m461.31,851.78c.04.48,0,.97-.14,1.43,0,0-34.22,5.71-41.22,0-3.99-3.37-9.22-4.91-14.4-4.22,0,0-13.24.36-15.45-4-.92-1.83-.68-5.38-.11-8.88.58-3.28,1.36-6.52,2.32-9.71l.53-.42,3.15-2.53,36.88-1.09h.28c-.18,7.54,12.52,16.19,12.52,16.19,13.49,5,15.48,10.65,15.64,13.23Z"/>
  <path class="cls-9" d="m461.31,851.78c.04.48-.02.97-.15,1.43,0,0-34.21,5.71-41.21,0-3.99-3.37-9.21-4.9-14.39-4.22,0,0-13.25.36-15.45-4-.92-1.84-.69-5.38-.12-8.88,5.1.51,13.15,1.78,16.31,4.81,4.78,4.61,12.88,9.21,17.85,9.57,3.89.25,27.16.99,37.16,1.29Z"/>
  <path class="cls-30" d="m375.76,393.78c-13.2-5.12-30.18-22.04-25.94-29.95.94-2,1.5-4.15,1.65-6.35.27-2.99.31-5.99.12-8.99-.3-4.9-.89-9.78-1.77-14.62,0,0,41.21.93,38.81,6.99-.7,1.78-.81,4.86-.62,8.32s.69,7.36,1.21,10.66c.72,4.53,1.44,7.99,1.44,7.99,0,0-2.52,3.52-4,3.71s8.04,29.53-10.9,22.23Z"/>
  <path class="cls-9" d="m342.03,834.3l-.31.34c-12.32-14.9-27.22,3.67-27.22,3.67l-.22-.39.76-8.44,23.37-6.07,3.31,10.12.31.77Z"/>
  <path class="cls-9" d="m433.16,823.41s-9-.19-13.8,4.05-28,.92-27,0c.3-.46.47-.98.52-1.52l3.15-2.53,36.88-1.09c.14.67.25,1.09.25,1.09Z"/>
  <path class="cls-11" d="m357.36,713.66c-.67,1.65-1.18,3.37-1.52,5.12-.83,4.8-1.07,9.68-.69,14.54.37,6.99,0,53.82,0,53.82,0,0-7.91,12.49-12.32,16.89s9,12.31,9,12.31c2,11.38-10.12,24.24-10.12,24.24-12.32-14.88-27.22,3.67-27.22,3.67,0,0-8.1-13.98-10.12-18.97s7.91-8.45,11.4-10.47-.17-13.98-.17-13.98c0,0-2.95-10.47-6.45-20.03-3.5-9.55,3.86-57.12,3.86-57.12,0,0,.38-8.45,1.29-11.39.46-2.13.55-4.31.27-6.47-.06-.73-.13-1.34-.18-1.75s-.09-.6-.09-.6l.14-.24,5-9.3s40.32,13.86,37.92,19.72Z"/>
  <path class="cls-11" d="m433.16,829.38s-9-.19-13.8,3.99c-4.8,4.18-28,.92-27,0s.92-7.72.92-7.72c-13.61-18.55-2-26.08-2-26.08,0,0-6.08-29.2-7.18-40.03-.77-7.57-1.72-27.9-2.23-39.52-.22-4.99-.35-8.43-.35-8.43l11.12-2.24,1.43-.29,26.82-5.37s.74,4.99,1.24,9.08c.25,1.74.39,3.5.42,5.26-.18,2,0,8.25,0,8.25l.91,18.74c-.59,1.97-.9,4.01-.91,6.06.18,2.39,3.67,36.55,3.67,36.55,0,0,6.07,20.39,4,21.85s2.94,19.89,2.94,19.89Z"/>
  <path class="cls-9" d="m388.63,340.86c-.7,1.78-.81,4.86-.62,8.32-11.26,6.77-25.42,6.51-36.42-.68-.3-4.91-.89-9.79-1.77-14.63,0,0,41.21.91,38.81,6.99Z"/>
  <path class="cls-30" d="m404.56,318.8c0,3.6-.56,7.17-1.68,10.59-5.87,17.94-25.19,27.73-43.15,21.87-13.79-4.49-23.24-17.17-23.59-31.65v-.82c-.32-18.87,14.73-34.42,33.63-34.74,18.9-.32,34.48,14.71,34.8,33.57,0,.39,0,.78,0,1.17h-.01Z"/>
  <path class="cls-9" d="m375.76,393.78c-13.2-5.12-30.18-22.04-25.94-29.95.94-2,1.5-4.15,1.65-6.35l18.07,14.83,11.18,9.16,8.5-21.6c.72,4.53,1.44,7.99,1.44,7.99,0,0-2.52,3.52-4,3.71s8.04,29.52-10.9,22.22Z"/>
  <polygon class="cls-11" points="422.49 459.3 407.4 712.38 387.72 713.67 336.76 566.92 345.12 392.7 346.88 355.89 369.54 374.47 380.73 383.62 389.48 361.39 405.75 375.55 422.49 459.3"/>
  <path class="cls-9" d="m357.36,713.66c-.67,1.65-1.18,3.37-1.52,5.12-14.32-2.21-28.23-6.55-41.26-12.87l-.27-.14.09-1.61.05-.84,5-9.3s40.31,13.78,37.91,19.64Z"/>
  <path class="cls-9" d="m392.87,718.82c-3.66.62-7.35,1.04-11.06,1.26-.22-4.99-.35-8.43-.35-8.43l11.12-2.24.29,9.4Z"/>
  <path class="cls-9" d="m422.07,712.83c-7.11,1.85-18.09,3.92-27.92,2.63l-.14-6.33,26.82-5.37s.74,4.94,1.24,9.08Z"/>
  <path class="cls-9" d="m393.97,716.62c-41,6.99-78.55-13.05-78.55-13.05l.36-6.79s.93-76.96-1.65-82.86-4.59-35.82-3.13-40.41-5.33-73.46-5.33-73.46l-1.1-27.95-40.26-16.28,18-37.46c2.43-5.25,4.52-10.65,6.26-16.17,3.13-9.72,17.66-19.28,17.66-19.28,0,0,14.9-9.54,20.79-9.18s13.61-8.45,13.61-8.45c5.7-14.51,10.86-7.94,10.86-7.94,0,.69,0,0-.28,2.15-2,15.92,32.34,66.24,32.83,67.13h0l3.27,79.53,3.31,100.65,3.35,109.84Z"/>
  <path class="cls-4" d="m392.87,716.62c-41,6.99-78.56-13.05-78.56-13.05l.37-6.79s.93-76.96-1.66-82.86-4.59-35.82-3.12-40.41-5.33-73.46-5.33-73.46l-1.11-27.95-40.28-16.34,18-37.46c2.43-5.25,4.52-10.66,6.26-16.17,3.12-9.72,17.66-19.28,17.66-19.28,0,0,14.9-9.54,20.78-9.18s13.61-8.45,13.61-8.45c5.71-14.51,12-7.94,12-7.94,0,.69-.6,1-.28,2.15,4.4,15.44,31.24,66.24,31.73,67.13h0l3.31,79.53,3.31,100.65,3.31,109.9Z"/>
  <path class="cls-9" d="m381.82,428.81c-4.41-1.84-27.77-28.46-27.77-28.46v-6.06c-.85-2-5.9-.78-10,.62l1.76-36.81,2,1.66c4.38,15.43,33.5,68.17,34.01,69.06Z"/>
  <path class="cls-4" d="m382.93,426.6c-4.42-1.84-27.78-28.46-27.78-28.46v-6.06c-.85-2-5.9-.78-10,.62l1.77-36.81,2,1.66c4.39,15.43,33.52,68.18,34.01,69.06Z"/>
  <path class="cls-9" d="m315.42,559.39c.55,0,28.51-2.94,28.51-2.94,0,0,16.93,33.24,15.82,41.32s-3.12,15.25-9.93,13.98-36.65,1-36.65,1l2.25-53.36Z"/>
  <path class="cls-4" d="m314.31,557.19c.55,0,28.51-2.94,28.51-2.94,0,0,16.92,33.25,15.82,41.32s-3.13,15.25-9.93,13.98-36.65,1-36.65,1l2.25-53.36Z"/>
  <path class="cls-30" d="m335.38,541.58s25.66,13.77,26.21,17.97-13.06-1.84-16-2.57c-1.94-.47-3.9-.77-5.89-.92l-19.61.53,15.29-15.02Z"/>
  <ellipse class="cls-9" cx="374.66" cy="427.83" rx="2.7" ry="2.7"/>
  <ellipse class="cls-12" cx="374.66" cy="426.73" rx="2.7" ry="2.7"/>
  <ellipse class="cls-9" cx="379.63" cy="544.52" rx="2.7" ry="2.7"/>
  <ellipse class="cls-12" cx="379.63" cy="543.41" rx="2.7" ry="2.7"/>
  <ellipse class="cls-9" cx="377.35" cy="486.17" rx="2.7" ry="2.7"/>
  <ellipse class="cls-12" cx="377.35" cy="485.08" rx="2.7" ry="2.7"/>
  <path class="cls-4" d="m439.59,555.51s1.84,2.76,0,4.04.18,4.4.18,4.4c0,0-4.59,2.69-2.57,5.1s.74,13.33.74,13.33l-5.52,9.13s.33,5.88.35,13.83c0,12.4-.73,29.83-4.77,37.78l.56,65.2s-19.33,7.05-35.51,4.9l-2.4-104.63s3.5-59.33,4.79-70.71c.75-5.91,1.06-11.87.92-17.82,0,0-.55-17.81-2.4-26.08,0,0-2-35.81-2.2-45.73-.09-4.74.16-18.58.44-31.74.31-14.39.66-27.95.66-27.95l-3.65-28.83s3.65-.37,4.75,1.1c.49.46,1.03.87,1.6,1.23h0c6.3,4.25,28.56,17.33,28.56,17.33,0,0,12.32,4.89,15.27,11.9s5,11.98,6.43,13.98,2.21,11.38,2.21,11.38c0,0,4.24,17.27,7.55,20.2s5.73,21.53,5.73,21.53l-29.25,22.96s-2.57,38.2-3.12,39.68,10.65,34.49,10.65,34.49Z"/>
  <path class="cls-4" d="m440.7,555.51s1.83,2.76,0,4.04.17,4.4.17,4.4c0,0-4.56,2.72-2.56,5.13s.74,13.33.74,13.33l-5.52,9.13s.33,5.88.36,13.83c0,12.4-.73,29.83-4.77,37.78l.55,65.2s-19.36,7.05-35.52,4.9l-2.39-104.63s3.5-59.33,4.79-70.71c.76-5.91,1.06-11.87.91-17.82,0,0-.55-17.81-2.39-26.08,0,0-2-35.81-2.21-45.73-.09-4.74.17-18.58.44-31.74.31-14.39.66-27.95.66-27.95l-4.82-29.22s4.82,0,5.93,1.49c.49.46,1.02.88,1.6,1.23h0c6.3,4.25,28.57,17.33,28.57,17.33,0,0,12.31,4.89,15.26,11.9s5,11.98,6.44,13.98,2.2,11.38,2.2,11.38c0,0,4.24,17.27,7.55,20.2s5.7,21.49,5.7,21.49l-29.25,22.96s-2.57,38.2-3.13,39.68,10.69,34.5,10.69,34.5Z"/>
  <path class="cls-9" d="m405.67,397.07l2.64,7.69-13.9,13.98c.31-14.38.66-27.95.66-27.95l-4.82-29.22s4.82,0,5.93,1.49c.49.46,1.02.87,1.6,1.22h0l11.82,34.04-3.93-1.24Z"/>
  <path class="cls-4" d="m404.56,394.86l2.65,7.69-13.9,13.98c.31-14.39.66-27.95.66-27.95l-4.83-29.22s4.83,0,5.93,1.49c.49.46,1.03.87,1.6,1.23h0l11.83,34.03-3.94-1.24Z"/>
  <path class="cls-9" d="m404.56,318.8c0,3.6-.56,7.17-1.68,10.59-.38.06-.77-.04-1.08-.27-.26-8.99-4.69-17.42-10.14-24.6-1.53-2.17-3.39-4.09-5.5-5.69-2.14-1.6-4.8-2.35-7.46-2.11-3,.41-5.65,2.45-8.68,2.71-4,.33-7.58-2.44-11.55-2.58-3.26.03-6.36,1.46-8.49,3.93-2.09,2.46-3.64,5.33-4.55,8.43-1.57,4.69-2.43,9.59-2.54,14.54-.05,2.8-.32,6.3-2.92,7.32.4-4.16-.97-8.29-3.77-11.39l-.06-.06v-.82c-.32-18.87,14.73-34.42,33.63-34.74,18.9-.32,34.48,14.71,34.8,33.57,0,.39,0,.78,0,1.17h-.01Z"/>
  <path class="cls-17" d="m384.52,264.56c-5.2-2.44-11.11-2.9-16.62-1.3-2.77.82-5.38,2.15-8.19,2.82-6,1.45-13-.12-18.15,3.38-2.86,2-4.58,5.15-6.18,8.22l-4,7.61c-2.18,4.16-4.38,8.4-5.29,12.98-.91,4.58-.36,9.71,2.55,13.4,2.12,2.69,5.25,4.37,7.55,6.9,2.79,3.11,4.15,7.23,3.76,11.38,2.61-1,2.86-4.51,2.92-7.31.11-4.95.97-9.85,2.54-14.54.91-3.09,2.46-5.96,4.55-8.43,2.13-2.47,5.23-3.9,8.49-3.93,4,.14,7.59,2.9,11.55,2.57,3-.25,5.66-2.3,8.68-2.7,2.66-.25,5.32.5,7.46,2.11,2.11,1.6,3.97,3.52,5.49,5.69,5.46,7.18,9.89,15.59,10.15,24.6,1.13.83,2.76-.25,3.32-1.53s.58-2.78,1.29-3.99c.82-1.41,2.39-2.16,3.62-3.21,3.12-2.69,3.9-7.21,3.78-11.31s-.92-8.27-.14-12.3c.47-2.48,1.53-4.79,2.11-7.24s.65-5.19-.72-7.3c-2-3.09-6.21-3.7-9.88-3.99-4.17-.36-7.9.1-10.56-3.4-1.25-1.83-2.65-3.55-4.2-5.13-.53-.52-5.88-3.81-5.88-4.03Z"/>
  <path class="cls-9" d="m275.83,475.09l-10.45-19.29-3.31,29.76s1.84,13.22,1.47,15.25,7.54,20.2,7.54,20.2c0,0,26.13,46.46,36.8,48.86l36.05-25.72-9.56-12.12s-3.31-1.29-4.14,0c0,0-17.75-30.49-19.59-32.7s-1.48-6.61-1.48-6.61c0,0-2.76-2.94-1.84-5.69s-5.33-12.31-5.33-12.31l5.7-5.32-31.86,5.69Z"/>
  <path class="cls-4" d="m265.93,453.61l-2.76,2.2-3.31,29.76s1.84,13.22,1.47,15.25,7.55,20.2,7.55,20.2c0,0,26.12,46.46,36.79,48.86l36.06-25.72-9.57-12.12s-3.31-1.29-4.14,0c0,0-17.75-30.49-19.59-32.7s-1.47-6.61-1.47-6.61c0,0-2.76-2.94-1.84-5.69s-5.34-12.31-5.34-12.31l5.7-5.32-39.55-15.79Z"/>
  <path class="cls-9" d="m437.2,570.2c2,2.43.74,13.32.74,13.32l-5.52,9.13s.33,5.89.35,13.83l-9.28,2.9c-2.9.91-5.99-.71-6.9-3.61-.18-.59-.27-1.2-.25-1.81l1.6-51.53,21.65,8.27c-1.84,1.28.18,4.41.18,4.41,0,0-4.59,2.68-2.57,5.1Z"/>
  <path class="cls-4" d="m438.31,569.09c2,2.43.74,13.33.74,13.33l-5.52,9.13s.33,5.88.36,13.83l-9.45,2.95c-2.85.88-5.87-.71-6.76-3.55-.18-.57-.26-1.17-.24-1.76l1.61-51.69,21.66,8.27c-1.85,1.28.17,4.4.17,4.4,0,0-4.57,2.69-2.57,5.1Z"/>
  <path class="cls-30" d="m445.48,544.53s-1.47,9.37-5.15,9.92c-3.68.55-5.33,15.17-9,14.65s-1.24-13.59-1.11-16.12-4-13.04-.91-15.42,12.87,0,12.87,0l3.3,6.98Z"/>
  <path class="cls-9" d="m453.31,472.34l6.94-13.98s2.76,10.65,2.76,16.34,3.86,6.25,3.86,6.25c0,0,4.23,4.99,2,8.63s-3.13,12.68-3.13,12.68c0,0,.73,17.26-2.58,19.65s-4,8.09-4,8.09c0,0-6.08,10.83-5.89,13.41s-8.46,20.02-8.46,20.02c0,0,4.23-21.67-20.42-31.04,0,0-.19-7.36,1.65-9.37s4.71-2.94,2.91-13.13-.52-22.37-.52-24.82,5.52-17.7,5.52-17.7l19.36,4.98Z"/>
  <path class="cls-4" d="m456.31,456.36l6.06,2s2.77,10.65,2.77,16.34,3.86,6.25,3.86,6.25c0,0,4.23,4.99,2,8.63s-3.12,12.68-3.12,12.68c0,0,.73,17.26-2.58,19.65s-4.05,8.09-4.05,8.09c0,0-6.07,10.83-5.88,13.41s-8.47,20.02-8.47,20.02c0,0,4.24-21.67-20.42-31.04,0,0-.18-7.36,1.66-9.37s4.71-2.94,2.91-13.13-.52-22.37-.52-24.82,5.52-17.7,5.52-17.7l20.26-10.99Z"/>
  <path class="cls-9" d="m322.46,818.64s9.66-6.06,16-1.66-16,1.66-16,1.66Z"/>
  <path class="cls-9" d="m397.52,799.9s8.55-1.1,15.73,6.62-15.73-6.62-15.73-6.62Z"/>
  <g class="cls-10">
    <path d="m410.03,317.08c-1.23,1.06-2.81,1.82-3.63,3.22-.7,1.21-.72,2.7-1.28,3.99s-2.19,2.36-3.32,1.54c-.26-8.99-4.7-17.42-10.15-24.61-1.52-2.17-3.38-4.09-5.49-5.69-2.14-1.61-4.8-2.36-7.47-2.11-3,.41-5.64,2.45-8.67,2.7-4,.34-7.59-2.43-11.56-2.57-3.26.03-6.36,1.47-8.48,3.94-2.09,2.46-3.64,5.32-4.55,8.42-1.57,4.69-2.43,9.59-2.54,14.54-.06,2.79-.32,6.26-2.9,7.3.06.74.06,1.48,0,2.22,2.6-1,2.86-4.51,2.92-7.31.11-4.95.97-9.85,2.54-14.54.91-3.09,2.46-5.96,4.55-8.43,2.13-2.47,5.22-3.9,8.48-3.93,4,.14,7.6,2.9,11.56,2.57,3-.25,5.66-2.3,8.67-2.7,2.67-.25,5.33.5,7.47,2.11,2.11,1.6,3.97,3.52,5.49,5.69,5.45,7.18,9.89,15.59,10.15,24.6,1.13.83,2.76-.25,3.32-1.53s.58-2.78,1.28-3.99c.82-1.41,2.4-2.16,3.63-3.21,3.12-2.69,3.9-7.21,3.78-11.31v-.38c-.19,3.55-1.14,7.18-3.8,9.47Z"/>
    <path d="m336.21,316.37c-2.3-2.53-5.44-4.21-7.55-6.89-1.78-2.37-2.79-5.22-2.91-8.18-.31,3.69.72,7.38,2.91,10.37,2.11,2.69,5.25,4.37,7.55,6.9,2.21,2.47,3.53,5.6,3.77,8.91.31-4.06-1.05-8.07-3.77-11.11Z"/>
    <path d="m415.78,286.23c-.59,2.45-1.64,4.77-2.12,7.24-.28,1.65-.39,3.32-.31,4.99.03-.95.14-1.9.31-2.84.48-2.48,1.53-4.79,2.12-7.24.34-1.35.46-2.75.33-4.13-.06.67-.17,1.33-.33,1.98Z"/>
  </g>
  <ellipse class="cls-7" cx="142.28" cy="836.56" rx="97.44" ry="15.65"/>
  <rect class="cls-18" x="139.15" y="544.3" width="6.27" height="140.94"/>
  <path class="cls-12" d="m184.82,684.81l-.39,6.35-.56,8.99-.23,3.73-.55,8.99-.24,3.73-.56,8.99-6.32,101.9c-.57,9.1-8.13,16.19-17.26,16.19h-32.86c-9.13,0-16.68-7.1-17.25-16.19l-6.29-101.97-.56-8.99-.23-3.73-.56-8.99-.23-3.73-.56-8.99-.4-6.35c-.28-4.95,3.51-9.2,8.48-9.48.17,0,.35-.01.52-.01h67.21c4.94.04,8.91,4.07,8.86,9,0,.19,0,.38-.02.56Z"/>
  <polygon class="cls-14" points="184.43 691.16 183.87 700.11 100.69 700.11 100.13 691.16 184.43 691.16"/>
  <polygon class="cls-14" points="183.64 703.85 183.09 712.81 101.48 712.81 100.92 703.85 183.64 703.85"/>
  <polygon class="cls-14" points="182.85 716.56 182.3 725.51 102.27 725.51 101.71 716.56 182.85 716.56"/>
  <path class="cls-11" d="m90.56,597.12c36.51,26.38,51.75,67.63,51.75,67.63,0,0-44-1.51-80.52-27.88-36.52-26.38-51.73-67.62-51.73-67.62,0,0,43.98,1.5,80.5,27.87Z"/>
  <path class="cls-15" d="m10.03,569.25s45.68,25.31,60.33,46.26,71.95,49.24,71.95,49.24"/>
  <path class="cls-11" d="m114.13,543.99c19.87,14.35,28.18,36.8,28.18,36.8,0,0-23.95-.82-43.83-15.17-19.88-14.35-28.17-36.81-28.17-36.81,0,0,23.94.82,43.82,15.18Z"/>
  <path class="cls-15" d="m70.31,528.81s24.86,13.78,32.83,25.18,39.17,26.8,39.17,26.8"/>
  <path class="cls-11" d="m171.16,579.65c-22.83,25.05-27.66,57.79-27.66,57.79,0,0,32.19-7.89,55-32.95s27.66-57.79,27.66-57.79c0,0-32.17,7.9-55,32.95Z"/>
  <path class="cls-15" d="m226.18,546.71s-29.74,25.68-37.3,43.37c-7.56,17.69-45.38,47.35-45.38,47.35"/>
  <path class="cls-2" d="m1009.22,570.84s-16.51-82.01-10.19-92.21c0,0,.23-9.48-.15-21.57v-1.39c1.11.74,2.27,1.41,3.47,2,5.82,2.99,12.51,3.85,18.9,2.44l-5-5.56c-1.2-1.33-2.45-2.77-2.71-4.52s.46-3.32,1.08-4.89c4.75-11.98,5-27.05-4.15-36.19-7.73-7.69-9.61-17.61-18-24.63-6.13-5.14-9.5-12.68-12.68-19.97-2.69-6.16-5.4-12.37-6.94-18.9-1.2-5.1-1.68-10.38-3.33-15.36s-4.74-9.82-9.57-12.05c-1.72-.79-3.63-1.24-5.2-2.29-2.06-1.39-3.3-3.64-4.79-5.62-7.57-9.98-32.92-4.1-44.92-.05-3.26,1.02-6.28,2.69-8.88,4.91l.11-.18c.09-.15.2-.3.3-.45-1.31,1.06-2.45,2.32-3.36,3.74-1.75,2.77-2.48,5.99-3.94,8.99-1.76,3.54-11.55,13.44-7.34,17.42.3.27.63.48,1,.64,1.58.66,3.32.83,5,.5l-.18.43c-1.44,3.51-2.17,7.28-2.17,11.07,0,16.4,13.55,29.7,30.28,29.7,3.15,0,6.27-.48,9.27-1.43.07.38.13.76.2,1.14,0,.15.05.3.07.45h0l-.53.74s-.06-.09-.09-.13l-15.7,21.9c-2.4,1.69-16.22,11.67-17,19.16-.82,8.2-1.64,17.79-1.64,17.79l-.11,2.06c-1.39,1.16-3.22,1.65-5,1.35-4.9-.8-4.9,17.97-4.9,17.97,0,0-3.26,3-5.5.4s-8.16,6.2-8.16,6.2l-37.1,1.6h0l-.85.05-2-6.18c-.45-1.36-1.91-2.1-3.27-1.67-.15.05-.31.11-.45.19l-.14.08-.26.18-.13.12c-.07.06-.14.14-.2.21l-.12.14-.06.06h0c-.47.65-.6,1.48-.36,2.24l1.72,5.3c-7.16,1.44-14.48,5.49-8.51,16.65l-30.26-5.58,9.79,8.21,50.54,10.41c-.67,1.2-.23,2.94,1.86,5.38,9,10.55,25.4,13.42,32,14.16,1.74,3.89,3.92,7.58,6.49,10.98l-.57,10.51s-16.71,80.13-19.77,84.19c1.54-1.75,2.96-3.61,4.23-5.56-4.85,16.46-11.63,39-13.41,42.37-2.86,5.39-5.51,27.21-2.25,28.6,1,.43,3.86.22,7.94-.09v1.81l-.18,68.48s.82,42-1.43,46-2.85,12.4-2.85,12.4c0,0-9,16.56-16.13,23.22-.05.05-.1.1-.16.14l-.22-1.56s-8.57,10.8-27.53,10.19c0,0-11.41,7.41,5.51,7.81s38.53-.6,38.53-.6c0,0,15.09-22.96,27.73-19.97v17.4h3.87v-17.68c3.63-2.38,6.12-6.15,6.89-10.41.67-4.43-1.04-8.88-4.52-11.71-1.55-1.4-2.45-3.38-2.47-5.47l-.14.12c0-.35-.09-.71-.13-1.08-1.11-8.99-2.5-27.52,2.41-41.24,6.73-18.81,8.77-45.01,3.87-60.6-1.58-4.98-2.88-10.05-3.89-15.19-.12-.65-.23-1.27-.33-1.85,3.35.45,6.67,1.12,9.93,2,11.35,3.12,36.18,3.7,57.38,3.53.05.58.11,1.19.18,1.8.38,4.23,1.17,8.42,2.36,12.5,2.66,7.99,3.88,43.2,3.88,43.2,0,0,3.43,28.95,1.56,40.73-1,6.55-2,13.13-2.57,19.74v.13s-5.62,15.97-9.73,24.65c-.1.22-.21.44-.31.65-1.1.1-2.17.34-3.21.71,0,0-5.51,10.98-11,12.8-5.49,1.82-3.67,7.8,8.76,5.6,12.43-2.2,31.2-3.99,31.2-3.99l.81-11.2,3.82-4.77-1,11.17,4.07-.8-.54-13.59,6.25-7.81s7.55-6.71-3.67-19.91v.29c-.12-.19-.23-.39-.36-.58v-.06c-1.86-2.88-3.34-8.24-.63-17.75,4.9-17.19,7.75-32.8,7.75-32.8,0,0,10.94-41.8-2.21-61.58h.58c-1.35-2.78-2.3-5.74-2.83-8.79-.07-.36-.13-.73-.18-1.11,9.73-.56,19.28-2.32,27.07-6.11-.03-.04-4.72-99.24-8.6-115.03Zm-123.53-69.19v.2l-2,.1,2-.3Zm-6.86.95c-.33.07-.64.22-.9.43-.86,1.21-1.4,2.63-1.57,4.1l-3.12-.7s-2.19-.47-5.34-1l-1.49-1.5c4.1-.34,8.36-.84,12.42-1.34Z"/>
  <polygon class="cls-25" points="982.06 835.15 980.87 849.32 984.86 848.52 984.26 833.15 982.06 835.15"/>
  <path class="cls-21" d="m891.03,775.03c-4.81,13.68-3.45,32.14-2.37,41.1.4,3.31.77,5.33.77,5.33,0,0-7.19,16.35-7.79,16.97s-21.16,13.15-21.16,13.15l-14.37,8.38s-14.58-6.38-7.59-8.58c1.43-.57,2.71-1.45,3.77-2.57,7-6.64,15.79-23.14,15.79-23.14,0,0,.6-8.38,2.8-12.36s1.4-45.84,1.4-45.84l.17-68.24v-8.9l27.35.2c.17,3.02.57,6.02,1.18,8.99.98,5.11,2.25,10.17,3.81,15.14,4.82,15.56,2.82,41.63-3.76,60.37Z"/>
  <path class="cls-9" d="m889.43,821.47s-7.19,16.35-7.79,16.97-21.16,13.15-21.16,13.15l-14.37,8.38s-14.58-6.38-7.59-8.58c1.43-.57,2.71-1.45,3.77-2.57l.62,4.36,4.79-.2,41-36.83c.36,3.29.73,5.31.73,5.31Z"/>
  <path class="cls-25" d="m888.93,817.08l-41.23,37.08-4.79.2-1-6.99s-8.38,10.76-27,10.16c0,0-11.18,7.38,5.39,7.78,16.57.4,37.73-.6,37.73-.6,0,0,14.78-22.96,27.15-19.97v17.34h3.8v-17.5c3.57-2.4,6-6.15,6.74-10.38.67-4.39-1-8.81-4.41-11.66-1.51-1.42-2.37-3.39-2.38-5.46Z"/>
  <path class="cls-21" d="m985.86,796.36c-2.66,9.48-1.21,14.83.61,17.69v.06c2.33,3.54,3.96,7.49,4.78,11.65l.16.9-18.76,27.31-10.18,3.99s-16.37-5.58-13.38-7.18c.75-.39,1.92-2.47,3.26-5.33,4-8.64,9.52-24.57,9.52-24.57v-.13c.58-6.58,1.5-13.14,2.52-19.67,1.83-11.75-1.53-40.59-1.53-40.59,0,0-1.2-35.07-3.8-43.05-1.17-4.06-1.95-8.21-2.33-12.42-.54-4.99-.66-9.11-.66-9.11,0,0,10.78-14.98,30.54,1.2,1.58,1.29,2.97,2.8,4.13,4.47,13.65,19.39,2.66,62.1,2.66,62.1,0,0-2.75,15.53-7.54,32.68Z"/>
  <path class="cls-9" d="m991.44,826.66l-18.76,27.31-10.18,3.99s-16.37-5.58-13.38-7.18c.75-.39,1.92-2.47,3.26-5.33,6.93-.06,10.52,6.53,10.52,6.53l8.78-1.4s11.58-22.72,14.18-24.11.4-10.37.4-10.37v-2.29c.07.08.13.17.21.25v.06c2.33,3.54,3.96,7.49,4.78,11.65l.19.89Z"/>
  <path class="cls-25" d="m963.5,852.56s-5-9.16-14.58-5.78c0,0-5.39,10.98-10.78,12.76s-3.59,7.77,8.59,5.58c12.18-2.19,30.54-3.99,30.54-3.99l.8-11.17,12.38-15.74s7.38-6.68-3.6-19.83v2.29s2.2,8.99-.4,10.37-14.14,24.12-14.14,24.12l-8.81,1.4Z"/>
  <path class="cls-9" d="m889.83,690.52c.17,3.02.57,6.02,1.18,8.99-11.26-1.65-21.71-.83-28.56-.29v-8.9l27.38.2Z"/>
  <path class="cls-9" d="m991.85,704.07s-16,.78-35.08.94c-.54-4.99-.66-9.11-.66-9.11,0,0,10.78-14.98,30.54,1.2,1.58,1.29,2.97,2.8,4.13,4.47.31.85.67,1.68,1.07,2.5Z"/>
  <path class="cls-25" d="m991.85,702.27s-70.08,3.38-91.44-2.6-42.53-.8-45.72-2.19c-3.19-1.39-.6-23.12,2.2-28.5s18.16-59.8,18.16-59.8l14.78-76.93,15.57-4.28,1.1-.31,27.13-7.47,19.88-5.48s39.53,154.08,36.14,165.44c-1.23,4.35-1.43,8.93-.58,13.37.52,3.03,1.45,5.98,2.78,8.76Z"/>
  <path class="cls-22" d="m838.31,479.63s-14,14.98-3.4,23.32c10.6,8.35,17.57.8,17.57.8l-14.17-24.12Z"/>
  <path class="cls-9" d="m838.31,479.63s-14,14.98-3.4,23.32c10.6,8.35,17.57.8,17.57.8l-14.17-24.12Z"/>
  <path class="cls-21" d="m951.42,381.18s-1.64,1.56-4.11,3.85c-3.52,3.28-8.73,8.09-13.35,12.11-6.4,5.56-11.68,9.64-9.79,6.16s1.53-9.55.59-15.24c-.07-.38-.13-.76-.2-1.13-.78-4.17-1.81-8.29-3.09-12.34,0,0,10.34-13.34,16.06-18.6,2.13-2,3.62-2.82,3.71-1.43.1,1.87,1.5,5.99,3.24,10.36.05.14.1.27.16.41,1.16,3,2.47,6.07,3.62,8.73,1.76,4.07,3.16,7.11,3.16,7.11Z"/>
  <path class="cls-9" d="m944.64,365.34c-1.98,10.63-9.6,19.34-19.88,22.72-.8-4.56-1.89-9.06-3.29-13.47,0,0,19.47-25.11,19.77-20.03.07,1.93,1.59,6.2,3.4,10.77Z"/>
  <path class="cls-9" d="m922.82,394.77l2.52-3.54s1.67,10.16,7.81,5.68,6.44,33.73,6.44,33.73l-6.59,98.37-47.62-2.85,1.35-47.53,5.39-23.96,13.33-34.83,7.93-11.51,9.44-13.56Z"/>
  <path class="cls-25" d="m939.59,431.25l-6,88.94-.63,9.42-26.55-1.59-1-.06-20-1.2,1.35-47.54,5.39-23.96,13.33-34.83,7.93-11.51,9.44-13.61,2.52-3.53s1.67,10.16,7.81,5.68l.13-.09h0c6-3.79,6.28,33.87,6.28,33.87Z"/>
  <path class="cls-4" d="m892.82,446.95s-2.39,4.99-7.19,4.18-4.79,17.97-4.79,17.97c0,0-3.19,3-5.39.4s-8,6.18-8,6.18l-36.34,1.6s16.17,7.38,13,29.7c0,0,54.9-3.39,56.7-8.58s-7.99-51.46-7.99-51.46Z"/>
  <path class="cls-8" d="m892.82,446.95s-2.39,4.99-7.19,4.18-4.79,17.97-4.79,17.97c0,0-3.19,3-5.39.4s-8,6.18-8,6.18l-36.34,1.6s16.17,7.38,13,29.7c0,0,54.9-3.39,56.7-8.58s-7.99-51.46-7.99-51.46Z"/>
  <polygon class="cls-4" points="787.21 489.01 796.79 497.18 875.65 513.72 865.87 503.76 787.21 489.01"/>
  <path class="cls-4" d="m922.97,397.92c-1.31,2-5.06,12.22-8.19,21.15-2.61,7.44-4.79,13.98-4.79,13.98,0,0-5.09,33.09-7.69,39.07s-1.19,29.3-1.19,29.3l-9.69,57.6s-4.39,29.7-11.17,47.44c-6.69,17.46-14.14,25.65-14.37,25.91,3-4.05,19.35-83.86,19.35-83.86l5.4-100.66s.79-9.56,1.59-17.74,17-19.34,17-19.34l15.62-22.17c1.57,2.1.52,5.75-1.87,9.33Z"/>
  <path class="cls-21" d="m882.24,527.28s-23-1-34.14-14.36c-11.14-13.36,25.75-5.33,25.75-5.33l9.59,2.2-1.2,17.49Z"/>
  <path class="cls-9" d="m989.65,680.16c-1.23,4.35-1.43,8.93-.58,13.37-25.09,1.78-51.93-4.99-51.93-4.99-5,4.59-18.17,11.36-18.17,11.36l-7.18-88.85c-4.59-11.98-6.39-74.75-6.39-74.75,0,0,.41-3.28,1-8.21,0-.12,0-.25.05-.37,1.79-13.75,5.34-39.56,7.08-43.04,2.4-4.79-7.38-17.54-7.38-17.54l4.45-37.89.54-4.57c9.38-4.18,16.57-17.54,16.57-17.54l5.52-9.65h0c6-3.84,6.31,33.82,6.31,33.82l-6,88.94,19.88-5.48s39.62,154.03,36.23,165.39Z"/>
  <path class="cls-4" d="m1015.4,686.3c-27.35,13.56-77.06,1-77.06,1-5,4.59-18.17,11.36-18.17,11.36l-7.19-88.85c-4.58-11.98-6.38-74.75-6.38-74.75,0,0,5.78-46.83,8.18-51.62.7-1.4.36-3.47-.47-5.71-4.08-10.64-5.58-22.1-4.38-33.44l1.92-16.28.53-4.56c9.39-4.19,16.58-17.55,16.58-17.55l5-8.75,9.2-16.11,4.36-7.63.74.67,5.65,5.11s2.4,2,6,4.99c7.83,6.59,21.36,18.19,28.34,25.29,6.14,6.25,8.08,30.56,8.64,48.86.37,12.05.15,21.49.15,21.49-6.19,10.17,10,91.85,10,91.85,3.77,15.78,8.36,114.62,8.36,114.62Z"/>
  <path class="cls-8" d="m962.9,405.7s-18.77,35.67-16.59,49.23,8.38,28.9,5.39,32.49c-2.08,2.75-5.33,4.37-8.79,4.38-3,.2-11,5.78-11,6.38s-7.39.6-14,3.39c-6.61,2.8-16.37,4.38-16.37,4.38,0,0-19-.6-20.77,1.2s-3.59,12.55.2,21.13,8,14.98,11.18,16.14c3.18,1.17,23.36-5.58,39.73-7.18,16.37-1.6,34.14-14.55,34.14-14.55,0,0,19.57-6.99,23-18.74,3.43-11.75-4.19-76.34-4.19-76.34,0,0-5.76-30.1-21.93-21.92Z"/>
  <path class="cls-8" d="m960.5,402.7s-18.77,35.68-16.57,49.23,8.38,28.9,5.38,32.5c-2.08,2.76-5.33,4.38-8.78,4.38-3,.2-11,5.78-11,6.38s-7.39.6-14,3.38-16.37,4.38-16.37,4.38c0,0-19-.6-20.76,1.2s-3.6,12.56.2,21.13c3.8,8.57,8,14.98,11.18,16.14s23.36-5.58,39.73-7.17,34.14-14.56,34.14-14.56c0,0,19.56-6.99,22.95-18.73,3.39-11.74-4.19-76.35-4.19-76.35,0,0-5.74-30.09-21.91-21.92Z"/>
  <path class="cls-4" d="m962.31,403.9s-18.77,35.68-16.57,49.23,8.38,28.9,5.39,32.49c-2.08,2.76-5.33,4.39-8.79,4.39-3,.2-11,5.78-11,6.37s-7.38.6-14,3.39c-6.62,2.8-16.37,4.38-16.37,4.38,0,0-19-.6-20.77,1.2s-3.59,12.56.2,21.13c3.79,8.57,8,14.98,11.18,16.14s23.36-5.58,39.73-7.18c16.37-1.6,34.14-14.55,34.14-14.55,0,0,19.57-6.99,23-18.74,3.43-11.75-4.14-76.34-4.14-76.34,0,0-5.84-30.05-22-21.92Z"/>
  <path class="cls-9" d="m961.9,499.6s-15-3-9.78,2,5.19,9.36,11.58,9.16-1.8-11.16-1.8-11.16Z"/>
  <path class="cls-9" d="m987.25,607.01s-6.78,4.58,6.19,15.15-6.19-15.15-6.19-15.15Z"/>
  <path class="cls-9" d="m974.31,644.67c0,.6-2.4,21.96,6.58,27.31s-6.58-27.31-6.58-27.31Z"/>
  <path class="cls-21" d="m831.73,477.23c-7.24.25-22.88,2.46-14.77,17.56,7.17,13.37,19.22,4.43,26-2.35-1.65-6.32-5.67-11.77-11.23-15.22Z"/>
  <path class="cls-21" d="m843.05,492.32l.3-.31-.3.31Z"/>
  <path class="cls-9" d="m959.91,384.79c-7.68,5.24-14.12,9.66-15.38,10.58-3.44,2.55-10,17.49-14.23,25.12-3.37,6.14-14.32,7.72-18.45,8.11l.53-4.56c9.39-4.19,16.58-17.55,16.58-17.55l18.56-32.49,6.39,5.8s2.4,2,6,4.99Z"/>
  <path class="cls-28" d="m959.91,384.19c-7.68,5.24-14.12,9.66-15.38,10.59-3.44,2.54-10,17.48-14.23,25.11-3.37,6.14-14.32,7.72-18.45,8.11l.53-4.56c9.39-4.19,16.58-17.55,16.58-17.55l18.56-32.49,6.39,5.78s2.4,1.98,6,5.01Z"/>
  <path class="cls-21" d="m945.13,358.75c0,5.99-1.82,11.85-5.22,16.78-9.28,13.48-27.75,16.89-41.24,7.62-13.5-9.27-16.92-27.7-7.64-41.18s27.75-16.89,41.24-7.62c8.05,5.52,12.85,14.65,12.86,24.39Z"/>
  <path class="cls-9" d="m996.89,458.34c-4.06-2.49-7.37-6.04-9.57-10.26-1.67-3.29-2.78-7.1-5.63-9.43-2.57-2.1-6-2.61-9.2-3.54-10.52-3.1-19.34-12.69-19.67-23.63-.16-5.15,1.45-10.29.72-15.39-.42-2.89-1.57-5.62-3.34-7.94-.88-1.11-1.85-2.15-2.89-3.1-1.4-1.32-2.87-2.6-4.15-3.99-.81-.87-1.51-1.82-2.1-2.85-.48-.84-.86-1.73-1.15-2.65-2-6.11-.18-13.36-2.38-19.54l-.12-.34c-.83-2.2-2.52-4.39-4.87-4.56s-4.36,1.78-6.6,2.65c-4.69,1.82-9.75-1.28-13.66-4.43s-8.32-6.76-13.29-6.06c-3.29.47-5.89,2.71-8.92,3.86-.68.26-1.39.47-2.11.61,6.09-15.17,23.36-22.54,38.56-16.46,11.25,4.5,18.62,15.39,18.61,27.49,0,2.08-.21,4.15-.65,6.18.05.14.1.27.16.41,1.16,3,2.47,6.07,3.62,8.73l5.65,5.11s2.4,2,6,4.99c7.83,6.59,21.36,18.19,28.34,25.29,6.14,6.27,8.06,30.57,8.64,48.87Z"/>
  <path class="cls-29" d="m889.72,328.88c1.43-2.91,2.14-6.16,3.85-8.92,2.51-3.99,6.89-6.55,11.39-8.1,11.75-4.04,36.58-9.91,44,0,1.46,2,2.67,4.21,4.69,5.59,1.54,1.05,3.4,1.5,5.09,2.29,4.73,2.22,7.75,7.05,9.36,11.98s2.09,10.22,3.27,15.3c1.51,6.52,4.16,12.7,6.8,18.84,3.11,7.25,6.41,14.77,12.41,19.89,8.19,6.99,10,16.88,17.6,24.55,9,9.11,8.71,24.13,4.07,36.06-.61,1.57-1.3,3.2-1.06,4.87s1.48,3.18,2.65,4.51l4.92,5.54c-11.64,2.81-24.81-3.26-30.23-13.92-1.67-3.29-2.78-7.09-5.64-9.43-2.56-2.1-6-2.6-9.19-3.53-10.52-3.11-19.34-12.71-19.67-23.65-.16-5.14,1.45-10.28.72-15.37-.41-2.91-1.56-5.66-3.35-7.99-2.75-3.58-6.9-5.99-9.14-9.98-3.79-6.68-.91-15.35-3.64-22.52-.84-2.2-2.52-4.39-4.87-4.56s-4.36,1.78-6.61,2.65c-4.68,1.82-9.74-1.27-13.65-4.43s-8.32-6.76-13.3-6.05c-3.29.46-5.88,2.7-8.91,3.86-2.24.86-6.78,1.63-8.74-.26-4.14-3.8,5.45-13.66,7.18-17.21Z"/>
  <path class="cls-9" d="m991.31,444.08c-1.68-3.29-2.78-7.09-5.64-9.42-2.56-2.1-6-2.61-9.2-3.54-10.51-3.1-19.33-12.7-19.67-23.64-.16-5.14,1.45-10.29.73-15.38-.42-2.89-1.57-5.62-3.35-7.94-2.76-3.58-6.91-5.99-9.14-9.98-3.79-6.67-.91-15.34-3.65-22.52-.83-2.19-2.52-4.38-4.86-4.56s-4.37,1.79-6.61,2.66c-4.68,1.82-9.75-1.28-13.65-4.43s-8.33-6.76-13.3-6.06c-3.29.47-5.89,2.71-8.91,3.86-2.24.86-6.79,1.64-8.75-.25-4.12-3.99,5.47-13.83,7.19-17.36,1.43-2.92,2.14-6.16,3.86-8.92.09-.15.19-.3.29-.45-1.29,1.06-2.4,2.32-3.29,3.73-1.71,2.76-2.42,5.99-3.85,8.92-1.73,3.53-11.32,13.4-7.19,17.36,2,1.9,6.5,1.12,8.74.26,3-1.17,5.62-3.4,8.91-3.86,5-.71,9.4,2.9,13.3,6.05s9,6.25,13.66,4.43c2.24-.87,4.2-2.83,6.6-2.65s4,2.37,4.87,4.56c2.73,7.17-.15,15.84,3.64,22.52,2.24,3.92,6.39,6.38,9.14,9.98,1.79,2.33,2.94,5.08,3.35,7.99.73,5.09-.88,10.23-.72,15.37.33,10.98,9.15,20.54,19.67,23.65,3.17.94,6.63,1.44,9.19,3.53,2.87,2.35,4,6.14,5.64,9.43,5.42,10.65,18.59,16.72,30.23,13.92l-2.32-2.62c-10.09.15-20.3-5.58-24.91-14.65Z"/>
  <path class="cls-9" d="m922.37,398.52c-1.31,2-5.06,12.22-8.19,21.15-2.93-1.14-5.59-8.4-5.59-8.4l15.62-22.18c1.6,2.2.55,5.84-1.84,9.43Z"/>
  <path class="cls-28" d="m922.97,397.92c-1.31,2-5.06,12.22-8.19,21.15-2.93-1.13-5.59-8.4-5.59-8.4l15.62-22.17c1.6,2.19.55,5.84-1.84,9.42Z"/>
  <path class="cls-16" d="m832.15,499.91l-8.66-27.27c-.43-1.34.31-2.77,1.65-3.2,0,0,0,0,.01,0h0c1.34-.42,2.77.32,3.2,1.66l8.66,27.24-.86,5.7-4-4.12Z"/>
  <path class="cls-5" d="m824.31,470.25h0c1.34-.42,2.78.32,3.21,1.66l8.66,27.24-.65,4.27.63.66.86-5.7-8.71-27.24c-.43-1.34-1.86-2.08-3.2-1.66h0c-.54.18-1.01.53-1.33,1,.17-.09.35-.17.53-.23Z"/>
  <polygon class="cls-19" points="832.15 499.91 837.01 498.37 836.3 503.05 836.15 504.07 834.73 502.6 832.15 499.91"/>
  <path class="cls-26" d="m834.73,502.6c.08-.11.19-.2.31-.26.14-.09.33-.09.47,0,.07.08.13.17.17.27.13.22.36.37.62.41l-.15,1-1.42-1.42Z"/>
  <path class="cls-21" d="m823.44,482.33s17.37-.1,13.28,7.28c-4.09,7.38-10.48,8.27-10.48,8.27l-2.8-15.54Z"/>
  <path class="cls-11" d="m715.41,151.22h-.75c-29.84,0-56.23,15.76-71.41,39.03-15.18-23.26-41.57-39.03-71.41-39.03h-.75c-46.61.44-84.16,38.28-84.19,84.81,0,27.76,12.18,67.16,35.93,99.58,45.25,61.77,120.42,115.81,120.42,115.81,0,0,75.17-54.03,120.41-115.81,23.76-32.42,35.93-71.81,35.93-99.58-.03-46.53-37.58-84.36-84.18-84.81Zm-10.73,189.14c-6.96-.03-13.18-4.32-15.67-10.8h-17.84c-2.41-.01-4.54-1.56-5.31-3.83l-5.48-16.48-17.34,60.49c-.69,2.39-2.89,4.04-5.38,4.04h-.35c-2.61-.13-4.78-2.06-5.2-4.63l-17.87-107.3-13.06,63.5c-.62,2.48-2.85,4.22-5.41,4.22h-25.13c-3.08.13-5.69-2.26-5.82-5.34-.13-3.08,2.26-5.68,5.35-5.81.16,0,.32,0,.47,0h20.73l18.5-85.37c.72-3.01,3.75-4.86,6.77-4.14,2.22.53,3.89,2.35,4.23,4.6l18.25,109.46,15.54-54.12c.66-2.34,2.79-3.97,5.23-3.99h.11c2.41,0,4.55,1.55,5.3,3.83l9.91,29.76h13.58c2.89-8.78,12.37-13.55,21.16-10.66,8.79,2.89,13.57,12.35,10.68,21.13-2.26,6.86-8.68,11.5-15.92,11.5l-.03-.04Z"/>
  <g>
    <path class="cls-20" d="m1046.67,240.37h-259.98c-5.56,0-10.08-4.52-10.08-10.08v-31.29h280.15v31.29c0,5.56-4.52,10.08-10.08,10.08Z"/>
    <rect class="cls-20" x="884.03" y="235.14" width="66.3" height="47.36"/>
    <rect class="cls-20" x="880.04" y="276.51" width="74.27" height="5.98"/>
    <path class="cls-12" d="m1056.5,212.21h-279.9V53.13c0-3.82,3.1-6.92,6.92-6.92h266.06c3.82,0,6.92,3.1,6.92,6.92v159.08h0Z"/>
    <rect class="cls-4" x="783.09" y="53.44" width="266.69" height="150.04"/>
  </g>
  <g>
    <path id="uuid-25324785-d0f2-4f1c-ad19-f4bb5410ff47-801" class="cls-1" d="m834.73,142.87c2.04-1.69,4.57-2,5.64-.7,1.07,1.3.29,3.72-1.75,5.41-.81.69-1.77,1.17-2.8,1.41l-8.74,7.04-3.21-4.17,8.96-6.49c.43-.97,1.08-1.82,1.91-2.48Z"/>
    <path class="cls-13" d="m784.22,158.75c0-.31,0-3.03,2.01-4.74,2.31-1.97,5.57-1.17,6.71-.89,2.64.65,2.86,1.78,5.33,2.94,4.64,2.18-1.17,1.06,1.59.36.96-.24,14.7-1.19,18.12-3.3,6.65-4.09,11.18-6.58,11.18-6.58l2.96,5.93s-4.28,5.96-10.31,10.37c-6.19,4.53-9.28,6.79-13.98,7.67-.4.08-10.36,1.77-18.38-4.21-1.83-1.37-5.18-3.87-5.23-7.54h0Z"/>
    <circle class="cls-1" cx="793.41" cy="133.36" r="10.32"/>
    <g>
      <polygon class="cls-1" points="874.25 202.7 863.62 191.82 858.13 197.54 866.05 207.98 873.91 208.88 874.25 202.7"/>
      <path class="cls-3" d="m813.55,182.3c.62.05,2.6.45,4.49-.59,1.29-.71,1.95-1.76,2.17-2.1,2.77-4.16,13.4-10.65,22.94-11.05,2.16-.09,3.58.16,4.88.83,1.83.96,2.56,2.32,4.89,5.53,1.27,1.75,2.68,3.41,3.97,5.15,7.54,10.2,10.4,11,10.1,14.27-.32,3.63-4.24,7.07-6.84,6.67-1.07-.16-1.48-.9-2.9-2.4-4.17-4.4-5.9-3.58-8.87-6.95-3.47-3.93-3.01-7.19-4.82-7.32-1.68-.12-2.39,2.66-5.97,6.36-1.64,1.69-2.81,2.47-6.36,4.93-13.85,9.61-14.07,10.28-16.87,11.05-1.22.34-9.9,2.71-12.99-1.07-4.84-5.93,6.59-23.79,12.19-23.32h0Z"/>
      <path class="cls-3" d="m871,205.16c.78-.35,1.7-.76,1.99-1.71.2-.64.08-1.43-.33-1.97-.47-.63-1.18-.71-1.15-.82.04-.17,1.7-.1,3.53.54.34.12,1.9.69,3.89,2.24,1.59,1.24,1.38,1.49,2.37,2.2,3.06,2.2,5.93.47,7.58,2.52.64.79.91,1.92.64,2.83-.54,1.83-3.16,2.46-4.6,2.79-3.45.78-6.07.14-8.8-.32-9.29-1.56-14.5-.14-15.2-2.29-.13-.41.08-.37.8-3.36.71-2.95.68-3.76,1.29-4,.91-.36,1.51,1.26,3.8,1.81,2.02.49,3.69-.26,4.2-.49h0Z"/>
    </g>
    <g>
      <polygon class="cls-1" points="855.35 238.3 852.67 223.32 844.91 224.98 845.61 238.06 851.6 243.21 855.35 238.3"/>
      <path class="cls-3" d="m816.59,187.33c.49.39,1.9,1.83,4.04,2.03,1.46.14,2.6-.36,2.98-.52,4.63-1.89,17.07-1.28,25.19,3.74,1.84,1.14,2.87,2.14,3.57,3.43.98,1.82.82,3.36.94,7.32.07,2.17.31,4.32.39,6.49.51,12.67,2.42,14.94.35,17.48-2.31,2.82-7.48,3.47-9.41,1.68-.79-.73-.72-1.58-1.05-3.62-.98-5.98-2.87-6.28-3.44-10.73-.66-5.2,1.54-7.64.12-8.76-1.32-1.04-3.47.86-8.51,1.91-2.31.48-3.71.46-8.04.51-16.86.17-17.42.61-20.16-.33-1.2-.41-9.72-3.31-10.15-8.18-.68-7.62,18.81-15.98,23.19-12.45h0Z"/>
      <path class="cls-3" d="m851.28,238.51c.84.15,1.83.32,2.6-.29.52-.42.87-1.13.84-1.81-.04-.79-.57-1.25-.49-1.33.13-.12,1.47.87,2.62,2.43.22.29,1.19,1.64,1.96,4.04.62,1.92.3,2,.72,3.16,1.3,3.53,4.64,3.71,4.86,6.35.08,1.02-.33,2.1-1.06,2.71-1.48,1.21-4,.26-5.37-.28-3.3-1.29-5.1-3.29-7.1-5.2-6.81-6.51-11.92-8.26-11.29-10.43.12-.41.28-.26,2.55-2.33,2.24-2.04,2.68-2.73,3.31-2.58.95.21.54,1.89,2.12,3.63,1.4,1.54,3.2,1.86,3.75,1.95h0Z"/>
    </g>
    <path class="cls-3" d="m794.82,135.33c.4-1.44-.1-1.96.41-2.61,0,0,.21-.26,2.06-.96h0c-.55-3.17-.14-3.7-.14-3.7.47-.62,1.42-.77,2.06-.69,1.36.17,1.6,1.4,2.47,1.37,1.2-.04,2.64-2.44,2.19-4.53-.36-1.7-1.94-2.96-2.33-2.74-.39.22-1.8-.74-2.33-.55-.36.13-2.08-.04-2.47.14-.42.2-1.64,1.42-1.76,1.27-.81-1.07-.79-1.45-1.26-1.68-.83-.41-1.73.35-3.29,1.1-3.21,1.54-4.14.62-5.62,1.92-.75.66-1.15,1.91-1.92,4.39-1.08,3.47-1.62,5.2-1.1,6.86.53,1.69,1.31,1.32,2.47,3.7,1.29,2.65.84,4.19,2.06,4.8.94.47,2.45.17,3.02-.69.98-1.47-1.55-3.45-.69-5.76.53-1.42,2.16-2.49,3.16-2.19,1.13.34,1.21,2.36,1.92,2.33.61-.03,1.03-1.53,1.1-1.78h0Z"/>
    <path class="cls-13" d="m787,145.21c2.11-2.37,10.72.08,11.52,3.84.33,1.55-.89,2.2-.55,3.98.51,2.6,3.36,2.43,5.49,5.08,3.01,3.76-.09,7.44,3.29,13.72.72,1.34,1.33,2.47,2.61,3.57,2.92,2.51,5.64,1.65,7.13,3.98,1.11,1.74.66,3.89.55,4.39-.44,2.06-1.63,2.56-2.47,4.25-1.4,2.81.18,4.87.27,8.23.11,4.2-2.12,10.02-6.58,11.93-5.02,2.15-11.07-1.41-13.99-4.94-1.75-2.11-2.25-4.05-3.02-6.45-3.42-10.72-5.34-9.75-7.96-18.25-2.99-9.71-3.57-21.09,0-24.69.47-.48,1.78-1.58,2.61-3.57,1.12-2.67.15-4.02,1.1-5.08h0Z"/>
    <g>
      <path id="uuid-91308677-eda7-42a2-9f2e-a07e84038198-802" class="cls-1" d="m818.21,200.34c1.64,2.08,1.89,4.61.57,5.65-1.32,1.04-3.72.2-5.36-1.88-.67-.82-1.12-1.79-1.34-2.83l-6.83-8.9,3.53-2.69,7,8.68c.96.45,1.79,1.13,2.44,1.97Z"/>
      <path class="cls-13" d="m793.21,154.23c.3-.07,2.96-.62,5.05,1,2.4,1.86,2.28,5.21,2.24,6.39-.09,2.72-1.16,3.16-1.79,5.82-1.18,4.98,1.07,9.62,2.32,12.17.43.89,1.82,3.6,4.58,6.51,5.37,5.68,10.15,8.66,10.15,8.66l-5.14,4.57s-8.19-2.5-13.74-7.5c-5.69-5.13-14.45-23.29-16.27-27.71-.16-.38,2.06,5.81,6.29-3.26.96-2.07,2.73-5.86,6.32-6.66h0Z"/>
    </g>
  </g>
  <g>
    <path class="cls-12" d="m924.84,149.97l-6.14-2.91c2.52,3.51,4.69,9,5.85,13.37,1.97-4.07,5.14-9.05,8.28-12.02l-6.49,1.67c4-19.6,19.04-33.67,36.26-33.67l.24-.71c-17.99,0-33.92,13.88-38.01,34.27Z"/>
    <path class="cls-13" d="m953.1,179.84h-38.8c-1.65,0-2.98-1.34-2.98-2.98s1.34-2.98,2.98-2.98h38.8c1.65,0,2.98,1.34,2.98,2.98s-1.34,2.98-2.98,2.98h0Z"/>
    <path class="cls-20" d="m1004.73,179.84h-38.8c-1.65,0-2.98-1.34-2.98-2.98s1.34-2.98,2.98-2.98h38.8c1.65,0,2.98,1.34,2.98,2.98s-1.34,2.98-2.98,2.98h0Z"/>
  </g>
  <g>
    <path class="cls-12" d="m981.76,98.64h-37.71c-.95,0-1.72-.77-1.72-1.72s.77-1.72,1.72-1.72h37.71c.95,0,1.72.77,1.72,1.72s-.77,1.72-1.72,1.72Z"/>
    <path class="cls-12" d="m1002,117.04h-78.19c-.95,0-1.72-.77-1.72-1.72s.77-1.72,1.72-1.72h78.19c.95,0,1.72.77,1.72,1.72s-.77,1.72-1.72,1.72Z"/>
  </g>
  <path class="cls-12" d="m793.56,282.94c0,.31.25.56.56.56h245.13c.31,0,.56-.25.56-.56s-.25-.56-.56-.56h-245.13c-.31,0-.56.25-.56.56Z"/>
  <path class="cls-12" d="m853.75,150.54c-.07,0-.13,0-.2,0-3.93-.25-17.37-2.15-25.39-16.03-.66-1.14-.53-2.59.32-3.61l14.86-17.7c.61-.72,1.55-1.14,2.5-1.13.66.02,2.21.18,2.51,1.38,1.78,7.09,9.32,15.42,18.39,16.52.92.11,1.66.93,1.97,2.19.25.98.02,1.99-.63,2.78l-11.9,14.45c-.6.73-1.49,1.16-2.43,1.16h0Zm-7.97-37.77c-.73,0-1.43.33-1.89.88l-14.86,17.7c-.66.79-.76,1.91-.25,2.8,7.85,13.57,20.98,15.43,24.82,15.67.78.05,1.54-.28,2.04-.89l11.9-14.45c.5-.61.68-1.39.49-2.15-.19-.74-.64-1.57-1.37-1.66-9.36-1.14-17.15-9.74-18.99-17.05-.15-.59-1.05-.82-1.84-.84-.01,0-.03,0-.04,0h0Z"/>
  <path class="cls-20" d="m837.16,135.09l10.71-10.92c.73-.75-.41-1.9-1.15-1.15l-10.71,10.92c-.73.75.41,1.9,1.15,1.15h0Z"/>
  <path class="cls-20" d="m843.63,138.17c2.96-2.65,5.53-5.72,7.63-9.09.56-.89-.85-1.7-1.4-.82-2.03,3.26-4.52,6.19-7.38,8.76-.78.7.37,1.84,1.15,1.15h0,0Z"/>
  <path class="cls-20" d="m849.46,141.85c2.69-2.98,4.98-6.31,6.79-9.9.47-.93-.93-1.75-1.4-.82-1.74,3.47-3.93,6.69-6.53,9.57-.7.77.45,1.93,1.15,1.15h0Z"/>
  <g>
    <ellipse class="cls-13" cx="844.87" cy="111.62" rx="10.8" ry="10.57"/>
    <path class="cls-4" d="m850.49,116.63c-1.66-4.08-3.32-8.17-4.98-12.25-.23-.56-.95-.58-1.17,0-1.64,4.28-2.71,8.75-3.23,13.3-.09.78,1.13.77,1.22,0,.2-1.78.5-3.55.89-5.3,1.37.07,2.75-.08,4.07-.45.68,1.67,1.36,3.35,2.04,5.02.29.72,1.47.4,1.17-.32Zm-7.01-5.45c.41-1.68.9-3.33,1.47-4.96l1.86,4.58c-1.09.29-2.21.41-3.33.38Z"/>
  </g>
  <path class="cls-12" d="m153.38,55.75h-1.29V20.44C152.09,9.15,142.94,0,131.66,0H56.84c-11.29,0-20.44,9.15-20.44,20.44h0v193.72c0,11.29,9.15,20.44,20.44,20.44h74.81c11.29,0,20.44-9.15,20.44-20.44h0V80.88h1.29v-25.14Z"/>
  <path class="cls-4" d="m132.33,5.8h-9.77c1.51,3.71-.27,7.94-3.98,9.45-.87.35-1.8.54-2.74.54h-42.86c-4,0-7.25-3.25-7.25-7.25,0-.94.18-1.87.54-2.74h-9.12c-8.43,0-15.26,6.83-15.26,15.26v193.44c0,8.43,6.83,15.26,15.26,15.26h75.17c8.43,0,15.26-6.83,15.26-15.26V21.06c0-8.43-6.83-15.26-15.26-15.26h0Zm-1.64,89.74c0,2.18-1.77,3.95-3.95,3.95h-19.11c-2.18,0-3.95-1.77-3.95-3.95v-.99c0-2.18,1.77-3.95,3.95-3.95h19.11c2.18,0,3.95,1.77,3.95,3.95v.99Zm2.14-17.46c0,2.18-1.77,3.95-3.95,3.95H60.35c-2.18,0-3.95-1.77-3.95-3.95v-.99c0-2.18,1.77-3.95,3.95-3.95h68.52c2.18,0,3.95,1.77,3.95,3.95v.99Zm0-17.46c0,2.18-1.77,3.95-3.95,3.95H60.35c-2.18,0-3.95-1.77-3.95-3.95v-.99c0-2.18,1.77-3.95,3.95-3.95h68.52c2.18,0,3.95,1.77,3.95,3.95v.99Zm0-17.46c0,2.18-1.77,3.95-3.95,3.95H60.35c-2.18,0-3.95-1.77-3.95-3.95v-.99c0-2.18,1.77-3.95,3.95-3.95h68.52c2.18,0,3.95,1.77,3.95,3.95v.99Z"/>
  <circle class="cls-4" cx="61.83" cy="77.75" r="2.31"/>
  <circle class="cls-4" cx="69.41" cy="77.75" r="2.31"/>
  <circle class="cls-4" cx="76.99" cy="77.75" r="2.31"/>
  <circle class="cls-4" cx="84.56" cy="77.75" r="2.31"/>
  <circle class="cls-4" cx="109.27" cy="95.21" r="2.31"/>
  <circle class="cls-4" cx="116.85" cy="95.21" r="2.31"/>
  <circle class="cls-4" cx="124.43" cy="95.21" r="2.31"/>
  <path class="cls-13" d="m133.36,125.09H55.21c-3.82,0-6.92,3.1-6.92,6.92v38.08c0,3.82,3.1,6.92,6.92,6.92h78.15c3.82,0,6.92-3.1,6.92-6.92v-38.08c0-3.82-3.1-6.92-6.92-6.92h0Zm-80.08,4.72c.15-.03,3.81-.65,6.84,1.17,3.03,1.82,4.19,5.35,4.24,5.5l.12.38-.39.07c-.56.09-1.13.13-1.7.12-1.8.03-3.58-.41-5.15-1.3-3.03-1.82-4.19-5.35-4.24-5.5l-.12-.38.39-.07Zm16.96,35.35h-13.94c-2.12,0-3.83-1.72-3.83-3.84,0-2.11,1.72-3.83,3.83-3.83h13.94c2.12,0,3.83,1.72,3.83,3.84,0,2.11-1.72,3.83-3.83,3.83Zm63.42-.7c0,2.31-1.87,4.17-4.18,4.18h-10.45c-2.31,0-4.17-1.87-4.18-4.18v-6.27c0-2.31,1.87-4.17,4.18-4.18h10.45c2.31,0,4.17,1.87,4.18,4.18v6.27Z"/>
  <path class="cls-12" d="m122.39,163.17h-4.2c-.62,0-1.13.51-1.13,1.13s.51,1.13,1.13,1.13h4.2c.62,0,1.13-.51,1.13-1.13,0-.62-.51-1.13-1.13-1.13Z"/>
  <path class="cls-12" d="m130.15,163.17h-4.2c-.62,0-1.13.51-1.13,1.13s.51,1.13,1.13,1.13h4.2c.62,0,1.13-.51,1.13-1.13,0-.62-.51-1.13-1.13-1.13Z"/>
  <path class="cls-12" d="m122.39,159.98h-4.2c-.62,0-1.13.51-1.13,1.13s.51,1.13,1.13,1.13h4.2c.62,0,1.13-.51,1.13-1.13s-.51-1.13-1.13-1.13Z"/>
  <path class="cls-12" d="m130.15,159.98h-4.2c-.62,0-1.13.51-1.13,1.13s.51,1.13,1.13,1.13h4.2c.62,0,1.13-.51,1.13-1.13s-.51-1.13-1.13-1.13h0Z"/>
  <path class="cls-12" d="m122.39,156.85h-4.2c-.62,0-1.13.51-1.13,1.13s.51,1.13,1.13,1.13h4.2c.62,0,1.13-.51,1.13-1.13s-.51-1.13-1.13-1.13Z"/>
  <path class="cls-12" d="m130.15,156.85h-4.2c-.62,0-1.13.51-1.13,1.13s.51,1.13,1.13,1.13h4.2c.62,0,1.13-.51,1.13-1.13s-.51-1.13-1.13-1.13h0Z"/>
  <rect class="cls-20" x="177.29" y="139.43" width="10.19" height="10.19"/>
  <path class="cls-12" d="m165.28,145.62h16.75v16.75h-16.75v-16.75Zm16.02.73h-15.29v15.29h15.29v-15.29Z"/>
  <rect class="cls-20" y="55.34" width="10.19" height="10.19"/>
  <path class="cls-12" d="m22.21,59.34H5.46v-16.75h16.75v16.75Zm-16.02-.73h15.29v-15.29H6.19v15.29Z"/>
  <polygon class="cls-23" points="237.75 240.79 233.29 240.79 231.16 223.57 237.75 223.57 237.75 240.79"/>
  <path class="cls-3" d="m230.1,239.51h8.61v5.42h-14.03c0-2.99,2.43-5.42,5.42-5.42Z"/>
  <polygon class="cls-23" points="259.96 240.79 255.49 240.79 253.37 223.57 259.96 223.57 259.96 240.79"/>
  <path class="cls-3" d="m252.31,239.51h8.61v5.42h-14.03c0-2.99,2.43-5.42,5.42-5.42Z"/>
  <path class="cls-23" d="m215.36,179.22c-1.21-1.79-.75-4.22,1.04-5.43.19-.13.39-.24.6-.34l15.17-41.82,7.47,4.07-17.32,39.96c.75,2.04-.29,4.3-2.33,5.05-1.7.63-3.62,0-4.63-1.5Z"/>
  <path class="cls-23" d="m257.68,187.08c-1.87-1.07-2.52-3.46-1.45-5.34.11-.2.25-.39.39-.57l-4.7-44.24,8.5.39,1.95,43.51c1.57,1.5,1.62,3.99.12,5.56-1.26,1.31-3.25,1.59-4.82.68h0Z"/>
  <circle class="cls-23" cx="244.12" cy="114.95" r="8.94"/>
  <path class="cls-24" d="m257.62,177.02h-26.96l.03-.21c.05-.31,4.8-31.47,1.3-41.66-.73-2.07.22-4.36,2.21-5.31h0c5.01-2.36,14.64-5.27,22.76,1.79,2.42,2.14,3.7,5.29,3.44,8.52l-2.79,36.87Z"/>
  <path class="cls-24" d="m235.84,149.95l-12.14-2.46,5.69-13.48c.71-2.72,3.49-4.36,6.22-3.65,2.71.71,4.35,3.48,3.65,6.19l-3.42,13.4Z"/>
  <path class="cls-24" d="m251.38,154.52l-.73-16.72c-.55-3.14,1.25-6.12,4.01-6.6,2.77-.48,5.47,1.7,6.03,4.86l2.74,15.63-12.06,2.84Z"/>
  <path class="cls-3" d="m256.72,175.02c4.34,16.52,4.81,37.52,3.64,60.43l-5.82-.73-10.56-43.69-5.82,44.41-6.55-.36c-1.96-24.04-3.86-44.67-.73-58.25l25.85-1.82Z"/>
  <path class="cls-3" d="m250.02,121.86c-1.67,1.78-4.77.82-4.98-1.6-.02-.19-.02-.38,0-.57.11-1.08.73-2.05.58-3.19-.03-.28-.14-.55-.31-.78-1.33-1.78-4.45.8-5.7-.82-.77-.99.13-2.54-.46-3.65-.78-1.46-3.09-.74-4.53-1.54-1.61-.89-1.51-3.36-.45-4.86,1.29-1.83,3.56-2.81,5.8-2.95s4.46.46,6.55,1.28c2.37.93,4.73,2.2,6.19,4.29,1.78,2.54,1.95,5.95,1.06,8.92-.54,1.81-2.39,4.01-3.75,5.46Z"/>
  <path class="cls-12" d="m311.3,245.37h-138.7c-.2,0-.36-.16-.36-.36s.16-.36.36-.36h138.7c.2,0,.36.16.36.36s-.16.36-.36.36Z"/>
  <path class="cls-4" d="m617.14,938.67h-130.84c-3.43,0-6.21-2.78-6.21-6.21v-177.63c0-3.43,2.78-6.21,6.21-6.21h130.84c3.43,0,6.21,2.78,6.21,6.21v177.63c0,3.43-2.78,6.21-6.21,6.21Z"/>
  <path class="cls-4" d="m545.82,794.85c0,10.52-6.77,19.85-16.78,23.11-.15.05-.29.09-.44.14-.63.19-1.27.36-1.92.5-1.18.26-2.38.42-3.58.5-.52.04-1.05.05-1.58.05-2.74,0-5.45-.46-8.04-1.36-.08-.03-.15-.05-.22-.08-12.62-4.56-19.16-18.49-14.6-31.12,4.56-12.62,18.49-19.16,31.12-14.6,9.63,3.48,16.05,12.62,16.05,22.86h0Z"/>
  <circle class="cls-6" cx="520.93" cy="799.12" r="11.82"/>
  <path class="cls-3" d="m521.62,805.49v-.44c-.81-.02-1.53-.07-2.08-.47-.31-.24-.5-.61-.53-1-.02-.24.07-.48.25-.64.42-.25.94-.26,1.37-.01l.37.17-.7-5.12-.44.06.6,4.36c-.5-.18-1.05-.1-1.48.21-.28.25-.44.62-.41.99.03.53.28,1.02.71,1.34.7.51,1.61.54,2.34.56Z"/>
  <rect class="cls-3" x="515.32" y="798.41" width="2.38" height=".44"/>
  <rect class="cls-3" x="522.83" y="798.41" width="2.38" height=".44"/>
  <path class="cls-3" d="m524.29,815.65c.03-.15.05-.29.05-.44,0-1.16-.94-2.1-2.1-2.1h-3.09c-1.16,0-2.1.94-2.1,2.1,0,.15.02.3.05.44-1.17.37-2.27.91-3.27,1.62-.19.13-.39.28-.57.43.07.03.15.05.22.08,2.58.9,5.3,1.36,8.04,1.36.53,0,1.06-.02,1.58-.05,1.2-.08,2.4-.24,3.58-.5.65-.14,1.29-.31,1.92-.5-1.25-1.11-2.72-1.94-4.31-2.44Z"/>
  <path class="cls-3" d="m523.89,818.81c-.29.02-.56.12-.8.28,1.2-.08,2.4-.24,3.58-.5l-2.78.22Z"/>
  <path class="cls-3" d="m531.66,796.31l-20.54-7.51c-.46-.17-.69-.68-.53-1.13l.07-.33c1.6-4.39,6.92-7.14,11.31-5.54l6.32,2.31c4.39,1.6,6.29,6.8,4.69,11.18l-.18.5c-.17.46-.68.69-1.13.53Z"/>
  <path class="cls-3" d="m532.76,796.73c-28.63,1.06-31.13-2.54-22.41-8.2l1.85-3.41,21.21,7.73-.65,3.87Z"/>
  <ellipse class="cls-3" cx="525.35" cy="783.03" rx=".99" ry="1.88" transform="translate(-375.77 1060.73) rotate(-73.27)"/>
  <path class="cls-24" d="m521.51,819.81c-2.81,0-5.6-.47-8.25-1.4l-.23-.08c-12.97-4.69-19.68-19-14.99-31.96,4.69-12.97,19-19.68,31.96-14.99,12.97,4.69,19.68,19,14.99,31.96-2.62,7.24-8.43,12.87-15.75,15.25-.16.05-.3.1-.45.14-.63.19-1.29.37-1.97.51-1.21.26-2.44.43-3.68.51-.53.04-1.08.05-1.62.05Zm0-48.6c-13.06,0-23.64,10.59-23.64,23.65,0,9.96,6.24,18.85,15.61,22.23l.22.08c2.51.88,5.15,1.33,7.81,1.32.51,0,1.03-.02,1.53-.05,1.17-.07,2.34-.23,3.49-.48.64-.14,1.27-.3,1.87-.49.15-.04.29-.09.43-.13,12.42-4.04,19.2-17.39,15.16-29.8-3.17-9.73-12.24-16.32-22.48-16.32Z"/>
  <path class="cls-24" d="m617.14,938.67h-130.84c-3.43,0-6.21-2.78-6.21-6.21v-177.63c0-3.43,2.78-6.21,6.21-6.21h130.84c3.43,0,6.21,2.78,6.21,6.21v177.63c0,3.43-2.78,6.21-6.21,6.21Zm-130.84-189.32c-3.03,0-5.48,2.46-5.48,5.48v177.63c0,3.03,2.46,5.48,5.48,5.48h130.84c3.03,0,5.48-2.46,5.48-5.48v-177.63c0-3.03-2.46-5.48-5.48-5.48h-130.84Z"/>
  <path class="cls-20" d="m591.81,794.75h-37.02c-1.62,0-2.93-1.31-2.93-2.93s1.31-2.93,2.93-2.93h37.02c1.62,0,2.93,1.31,2.93,2.93s-1.31,2.93-2.93,2.93Z"/>
  <path class="cls-20" d="m603.89,804.64h-49.11c-1.62,0-2.93-1.31-2.93-2.93s1.31-2.93,2.93-2.93h49.11c1.62,0,2.93,1.31,2.93,2.93s-1.31,2.93-2.93,2.93Z"/>
  <path class="cls-20" d="m591.75,842.55h-92.21c-1.62,0-2.93-1.31-2.93-2.93s1.31-2.93,2.93-2.93h92.21c1.62,0,2.93,1.31,2.93,2.93s-1.31,2.93-2.93,2.93h0Z"/>
  <path class="cls-20" d="m603.84,852.44h-104.3c-1.62,0-2.93-1.31-2.93-2.93s1.31-2.93,2.93-2.93h104.3c1.62,0,2.93,1.31,2.93,2.93s-1.31,2.93-2.93,2.93Z"/>
  <path class="cls-20" d="m591.75,875.16h-92.21c-1.62,0-2.93-1.31-2.93-2.93s1.31-2.93,2.93-2.93h92.22c1.62,0,2.93,1.31,2.93,2.93,0,1.62-1.31,2.92-2.93,2.93Z"/>
  <path class="cls-20" d="m603.84,885.04h-104.3c-1.62,0-2.93-1.31-2.93-2.93,0-1.62,1.31-2.93,2.93-2.93h104.3c1.62,0,2.93,1.31,2.93,2.93,0,1.62-1.31,2.93-2.93,2.93h0Z"/>
  <path class="cls-20" d="m591.75,907.76h-92.21c-1.62,0-2.93-1.31-2.93-2.93,0-1.62,1.31-2.93,2.93-2.93h92.22c1.62,0,2.93,1.31,2.93,2.93,0,1.62-1.31,2.92-2.93,2.93Z"/>
  <path class="cls-20" d="m603.84,917.65h-104.3c-1.62,0-2.93-1.31-2.93-2.93,0-1.62,1.31-2.93,2.93-2.93h104.3c1.62,0,2.93,1.31,2.93,2.93,0,1.62-1.31,2.93-2.93,2.93h0Z"/>
  <path class="cls-4" d="m787.46,894.08h-130.84c-3.43,0-6.21-2.78-6.21-6.21v-177.63c0-3.43,2.78-6.21,6.21-6.21h130.84c3.43,0,6.21,2.78,6.21,6.21v177.63c0,3.43-2.78,6.21-6.21,6.21Z"/>
  <path class="cls-24" d="m787.46,894.08h-130.84c-3.43,0-6.21-2.78-6.21-6.21v-177.63c0-3.43,2.78-6.21,6.21-6.21h130.84c3.43,0,6.21,2.78,6.21,6.21v177.63c0,3.43-2.78,6.21-6.21,6.21Zm-130.84-189.32c-3.03,0-5.48,2.46-5.48,5.48v177.63c0,3.03,2.46,5.48,5.48,5.48h130.84c3.03,0,5.48-2.46,5.48-5.48v-177.63c0-3.03-2.46-5.48-5.48-5.48h-130.84Z"/>
  <path class="cls-4" d="m716.2,750.01c0,13.42-10.88,24.3-24.3,24.3-13.42,0-24.3-10.88-24.3-24.3,0-13.42,10.88-24.3,24.3-24.3,13.42,0,24.3,10.88,24.3,24.3Z"/>
  <path class="cls-6" d="m703.13,754.17c-.27,15.54-23.38,15.54-23.65,0,.27-15.54,23.38-15.54,23.65,0Z"/>
  <path class="cls-3" d="m690.83,759v-.44c3.03.41,3.69-3.37.62-1.96l.7-5.12.44.06-.6,4.36c3.23-.48,2.04,3.55-1.16,3.1Z"/>
  <rect class="cls-3" x="694.75" y="751.91" width="2.38" height=".44"/>
  <rect class="cls-3" x="687.24" y="751.91" width="2.38" height=".44"/>
  <path class="cls-3" d="m695.13,770.7c.46-3.13-3.2-2.51-5.14-2.54-1.16,0-2.1.95-2.1,2.11,0,.14.02.29.05.43-1.5.46-2.89,1.23-4.09,2.25,5.03,1.75,10.49,1.81,15.56.17-1.24-1.11-2.7-1.94-4.28-2.42Z"/>
  <path class="cls-3" d="m685.74,748.58c2.19-1.27,4.85-.29,7.11.24,4.29,1.32,10.32-.33,10.84-5.45.54-4.76-5.96-7.41-8.05-2.67l.61-.08c-6.75-10.03-18.48-9.65-18.4,4.14-.03.43.64.42.66,0-.25-8.12,5.13-13.68,12.73-8.46,1.7,1.33,3.19,2.9,4.44,4.65.79.89.96-2.93,4.75-1.93,4.17,1.61,2.81,7.58-.92,8.89-4.6,2.35-9.59-2.21-14.11.1-.15.1-.2.3-.1.46.09.15.28.2.44.11h0Z"/>
  <path class="cls-24" d="m691.89,774.98c-13.78-.01-24.93-11.19-24.92-24.96s11.19-24.93,24.96-24.92,24.93,11.19,24.92,24.96c0,10.8-6.97,20.36-17.24,23.7-2.5.81-5.1,1.22-7.73,1.22Zm0-48.6c-13.06,0-23.64,10.58-23.65,23.64s10.58,23.64,23.64,23.65c13.06,0,23.64-10.58,23.65-23.64h0c-.01-13.06-10.59-23.63-23.64-23.65Z"/>
  <path class="cls-20" d="m762.13,750.16h-37.02c-1.62,0-2.93-1.31-2.93-2.93s1.31-2.93,2.93-2.93h37.02c1.62,0,2.93,1.31,2.93,2.93,0,1.62-1.31,2.93-2.93,2.93h0Z"/>
  <path class="cls-20" d="m774.21,760.05h-49.11c-1.62,0-2.93-1.31-2.93-2.93,0-1.62,1.31-2.93,2.93-2.93h49.11c1.62,0,2.93,1.31,2.93,2.93s-1.31,2.93-2.93,2.93Z"/>
  <path class="cls-20" d="m762.07,797.96h-92.21c-1.62,0-2.93-1.31-2.93-2.93s1.31-2.93,2.93-2.93h92.21c1.62,0,2.93,1.31,2.93,2.93,0,1.62-1.31,2.93-2.93,2.93h0Z"/>
  <path class="cls-20" d="m774.15,807.85h-104.3c-1.62,0-2.93-1.31-2.93-2.93s1.31-2.93,2.93-2.93h104.3c1.62,0,2.93,1.31,2.93,2.93s-1.31,2.93-2.93,2.93h0Z"/>
  <path class="cls-20" d="m762.07,830.57h-92.21c-1.62,0-2.93-1.31-2.93-2.93s1.31-2.93,2.93-2.93h92.21c1.62,0,2.93,1.31,2.93,2.93s-1.31,2.93-2.93,2.93Z"/>
  <path class="cls-20" d="m774.15,840.45h-104.3c-1.62,0-2.93-1.31-2.93-2.93s1.31-2.93,2.93-2.93h104.3c1.62,0,2.93,1.31,2.93,2.93s-1.31,2.93-2.93,2.93Z"/>
  <path class="cls-20" d="m762.07,863.18h-92.21c-1.62,0-2.93-1.31-2.93-2.93,0-1.62,1.31-2.93,2.93-2.93h92.22c1.62,0,2.93,1.31,2.93,2.93,0,1.62-1.31,2.93-2.93,2.93h0Z"/>
  <path class="cls-20" d="m774.15,873.06h-104.3c-1.62,0-2.93-1.31-2.93-2.93,0-1.62,1.31-2.93,2.93-2.93h104.3c1.62,0,2.93,1.31,2.93,2.93,0,1.62-1.31,2.92-2.93,2.93Z"/>
  <path class="cls-4" d="m708.51,970.47h-130.84c-3.43,0-6.21-2.78-6.21-6.21v-177.63c0-3.43,2.78-6.21,6.21-6.21h130.84c3.43,0,6.21,2.78,6.21,6.21v177.63c0,3.43-2.78,6.21-6.21,6.21Z"/>
  <path class="cls-4" d="m588.58,826.14c0,6.46,2.56,12.66,7.14,17.21.19.19.38.38.58.56,1.18,1.11,2.48,2.09,3.86,2.94.27.16.53.32.8.47,1.4.79,2.87,1.43,4.39,1.93.26.09.53.17.8.24,4.85,1.39,10,1.24,14.76-.42.09-.03.19-.07.28-.1,12.61-4.59,19.12-18.53,14.53-31.15-4.59-12.61-18.53-19.12-31.15-14.53-9.6,3.49-15.99,12.62-15.99,22.84h0Z"/>
  <path class="cls-3" d="m607.75,838.05c.01,1.88-.68,3.7-1.95,5.1-1.25,1.37-3.11,2.28-4.99,1.9-1.73-.35-3.13-1.86-2.96-3.68.11-1.5,1.42-2.63,2.92-2.52.15.01.3.04.45.07,1.64.43,2.3,2.79.93,3.9-.33.27-.8-.2-.47-.47.67-.62.72-1.66.1-2.34-.16-.17-.35-.31-.57-.41-1.09-.35-2.26.25-2.62,1.35-.05.16-.08.33-.09.49-.11,1.54,1.07,2.7,2.52,2.97,1.57.3,3.12-.51,4.18-1.61,1.22-1.28,1.89-2.99,1.87-4.76,0-.18.16-.33.34-.32.17,0,.31.15.32.32Z"/>
  <circle class="cls-6" cx="614.22" cy="830.44" r="11.82"/>
  <path class="cls-3" d="m613.61,835.49v-.44c.81-.02,1.53-.07,2.08-.47.31-.24.5-.61.53-1,.02-.24-.07-.48-.25-.64-.42-.25-.94-.26-1.37-.01l-.37.17.7-5.12.44.06-.6,4.36c.5-.18,1.05-.1,1.48.21.28.25.44.62.41.99-.03.53-.28,1.02-.71,1.34-.7.51-1.61.54-2.34.56Z"/>
  <rect class="cls-3" x="617.54" y="828.4" width="2.38" height=".44"/>
  <rect class="cls-3" x="610.02" y="828.4" width="2.38" height=".44"/>
  <path class="cls-3" d="m606.15,849.5c4.85,1.39,10,1.24,14.76-.42.09-.03.19-.07.28-.1-1.12-.87-2.39-1.52-3.74-1.94.1-.34.09-.7,0-1.04-.28-.88-1.1-1.48-2.02-1.47h-2.88c-.92-.01-1.74.58-2.02,1.46-.1.34-.1.7,0,1.04-1.19.37-2.32.92-3.34,1.64-.21.14-.4.29-.6.45-.15.12-.29.24-.43.36Z"/>
  <path class="cls-12" d="m623.48,829.19c0,1.99.98,3.65,2.26,3.93.13.03.26.04.4.04,1.46,0,2.65-1.78,2.65-3.98.03-1.13-.33-2.24-1.02-3.13-.22-.26-.48-.48-.78-.63-.26-.14-.55-.21-.85-.21-.41,0-.8.14-1.13.38-.9.64-1.52,2.01-1.52,3.6Z"/>
  <path class="cls-12" d="m599.84,829.19c0,1.71.72,3.18,1.74,3.74.28.16.59.24.91.24.07,0,.14,0,.21-.01,1.36-.16,2.44-1.88,2.44-3.96,0-1.67-.69-3.11-1.67-3.69-.3-.18-.64-.28-.98-.29-.3,0-.59.07-.85.21-.3.16-.57.37-.78.64-.69.89-1.05,2-1.02,3.13Z"/>
  <path class="cls-12" d="m601.75,832.54c.18,0,.33-.15.33-.33,0-.04,0-.07-.02-.11-2.28-6.77,1.37-14.09,8.13-16.37,6.77-2.28,14.09,1.37,16.37,8.13.74,2.19.87,4.53.4,6.79-.04.18.08.35.26.39.18.04.35-.08.39-.26,1.55-7.34-3.15-14.55-10.49-16.1s-14.55,3.15-16.1,10.49c-.5,2.37-.36,4.84.42,7.14.05.13.17.23.31.23Z"/>
  <path class="cls-3" d="m620.16,822.78c.4.66.3,1.51-.26,2.05-.64.72-1.67.76-2.55.63-1-.15-2.06-.62-3.06-.3-.86.27-1.47,1.05-2.37,1.25-.79.17-1.74-.06-2.02-.9-.13-.41.51-.58.64-.18.18.55.96.54,1.4.38.71-.24,1.26-.83,1.96-1.12.84-.26,1.73-.26,2.56,0,.79.18,1.71.44,2.49.11.58-.25,1.05-1.02.63-1.6-.25-.34.32-.68.57-.33h0Z"/>
  <path class="cls-24" d="m612.88,851.11c-2.34,0-4.66-.33-6.91-.97-.26-.07-.54-.16-.82-.25-1.57-.51-3.08-1.17-4.51-1.98-.27-.15-.54-.31-.82-.49-1.42-.87-2.75-1.88-3.96-3.02-.2-.19-.4-.38-.59-.57-9.76-9.73-9.79-25.54-.05-35.3s25.54-9.79,35.3-.05c9.76,9.73,9.79,25.54.05,35.3-2.58,2.59-5.7,4.58-9.14,5.83-.09.03-.19.07-.28.1-2.65.93-5.45,1.4-8.26,1.4Zm0-48.6c-13.06,0-23.64,10.59-23.64,23.64,0,6.28,2.5,12.31,6.95,16.74.18.18.37.36.57.54,1.15,1.08,2.41,2.03,3.75,2.86.27.17.53.32.78.46,1.36.77,2.79,1.39,4.27,1.88.26.09.52.16.77.24,4.71,1.35,9.73,1.21,14.36-.4l.27-.1c12.27-4.47,18.6-18.03,14.13-30.3-3.4-9.34-12.28-15.55-22.21-15.56h0Z"/>
  <path class="cls-12" d="m708.51,970.47h-130.84c-3.43,0-6.21-2.78-6.21-6.21v-177.63c0-3.43,2.78-6.21,6.21-6.21h130.84c3.43,0,6.21,2.78,6.21,6.21v177.63c0,3.43-2.78,6.21-6.21,6.21Zm-130.84-189.32c-3.03,0-5.48,2.46-5.48,5.48v177.63c0,3.03,2.46,5.48,5.48,5.48h130.84c3.03,0,5.48-2.46,5.48-5.48v-177.63c0-3.03-2.46-5.48-5.48-5.48h-130.84Z"/>
  <path class="cls-6" d="m683.18,826.55h-37.02c-1.62,0-2.93-1.31-2.93-2.93,0-1.62,1.31-2.93,2.93-2.93h37.03c1.62,0,2.93,1.31,2.93,2.93,0,1.62-1.31,2.93-2.93,2.93h0Z"/>
  <path class="cls-6" d="m695.26,836.43h-49.11c-1.62,0-2.93-1.31-2.93-2.93,0-1.62,1.31-2.93,2.93-2.93h49.11c1.62,0,2.93,1.31,2.93,2.93,0,1.62-1.31,2.92-2.93,2.93Z"/>
  <path class="cls-24" d="m683.13,874.35h-92.21c-1.62,0-2.93-1.31-2.93-2.93,0-1.62,1.31-2.92,2.93-2.93h92.21c1.62,0,2.93,1.31,2.93,2.93,0,1.62-1.31,2.92-2.93,2.93Z"/>
  <path class="cls-24" d="m695.21,884.23h-104.3c-1.62,0-2.93-1.31-2.93-2.93,0-1.62,1.31-2.92,2.93-2.93h104.3c1.62,0,2.93,1.31,2.93,2.93,0,1.62-1.31,2.92-2.93,2.93Z"/>
  <path class="cls-24" d="m683.13,906.96h-92.21c-1.62,0-2.93-1.32-2.92-2.93,0-1.61,1.31-2.92,2.92-2.92h92.21c1.62,0,2.93,1.31,2.93,2.93,0,1.62-1.31,2.92-2.93,2.93Z"/>
  <path class="cls-24" d="m695.21,916.84h-104.3c-1.62,0-2.93-1.32-2.92-2.93,0-1.61,1.31-2.92,2.92-2.92h104.3c1.62,0,2.93,1.31,2.93,2.93,0,1.62-1.31,2.92-2.93,2.93Z"/>
  <path class="cls-24" d="m683.13,939.56h-92.21c-1.62,0-2.93-1.31-2.93-2.93,0-1.62,1.31-2.92,2.93-2.93h92.21c1.62,0,2.93,1.31,2.93,2.93,0,1.62-1.31,2.92-2.93,2.93Z"/>
  <path class="cls-24" d="m695.21,949.45h-104.3c-1.62,0-2.93-1.31-2.93-2.93,0-1.62,1.31-2.92,2.93-2.93h104.3c1.62,0,2.93,1.31,2.93,2.93,0,1.62-1.31,2.93-2.93,2.93h0Z"/>
  <path class="cls-6" d="m706.99,930.02c-15.94,0-28.86,12.92-28.86,28.86,0,15.94,12.92,28.86,28.86,28.86h0c15.94-.03,28.84-12.97,28.81-28.91-.03-15.9-12.91-28.78-28.81-28.81Z"/>
  <path id="ba2462e0-2d61-4715-874d-575d790dfdd0-1581" class="cls-4" d="m704.25,970.87c-.76,0-1.5-.24-2.11-.7l-.04-.03-7.94-6.07c-1.54-1.19-1.84-3.4-.65-4.95,1.18-1.54,3.4-1.83,4.94-.65l5.14,3.94,12.15-15.85c1.18-1.55,3.4-1.84,4.94-.65h0s0,0,0,0l-.08.1.08-.1c1.54,1.19,1.84,3.4.65,4.94l-14.29,18.63c-.67.87-1.71,1.38-2.81,1.38h0Z"/>
</svg>